<?xml version="1.0" encoding="UTF-8" standalone="no"?>
<svg width="513.292mm" height="63.5mm"
 xmlns="http://www.w3.org/2000/svg" xmlns:xlink="http://www.w3.org/1999/xlink"  version="1.2" baseProfile="tiny">
<title>Qt SVG Document</title>
<desc>Generated with Qt</desc>
<defs>
</defs>
<g fill="none" stroke="black" stroke-width="1" fill-rule="evenodd" stroke-linecap="square" stroke-linejoin="bevel" >

<g fill="none" stroke="#000000" stroke-opacity="1" stroke-width="1" stroke-linecap="square" stroke-linejoin="bevel" transform="matrix(1,0,0,1,0,0)"
font-family="Noto Sans" font-size="9" font-weight="400" font-style="normal" 
>
</g>

<g fill="none" stroke="#000000" stroke-opacity="1" stroke-width="1" stroke-linecap="square" stroke-linejoin="bevel" transform="matrix(1,0,0,1,0,0)"
font-family="Noto Sans" font-size="9" font-weight="400" font-style="normal" 
>
</g>

<g fill="none" stroke="#000000" stroke-opacity="1" stroke-width="1" stroke-linecap="square" stroke-linejoin="bevel" transform="matrix(1.99985,0,0,1.99985,-0.00639954,179.987)"
font-family="Noto Sans" font-size="9" font-weight="400" font-style="normal" 
>
</g>

<g fill="#ffffff" fill-opacity="1" stroke="none" transform="matrix(1.99985,0,0,1.99985,-0.00639954,179.987)"
font-family="Noto Sans" font-size="9" font-weight="400" font-style="normal" 
>
<rect x="0.0032" y="-90" width="727.553" height="90"/>
</g>

<g fill="none" stroke="#000000" stroke-opacity="1" stroke-width="1" stroke-linecap="square" stroke-linejoin="bevel" transform="matrix(1.99985,0,0,1.99985,-0.00639954,179.987)"
font-family="Noto Sans" font-size="9" font-weight="400" font-style="normal" 
>
</g>

<g fill="none" stroke="#000000" stroke-opacity="1" stroke-width="1" stroke-linecap="square" stroke-linejoin="bevel" transform="matrix(1.99985,0,0,1.99985,-0.00639954,179.987)"
font-family="Noto Sans" font-size="9" font-weight="400" font-style="normal" 
>
</g>

<g fill="none" stroke="#000000" stroke-opacity="1" stroke-width="1" stroke-linecap="square" stroke-linejoin="bevel" transform="matrix(1.99985,0,0,1.99985,-0.00639954,179.987)"
font-family="Noto Sans" font-size="9" font-weight="400" font-style="normal" 
>
</g>

<g fill="none" stroke="#000000" stroke-opacity="1" stroke-width="1" stroke-linecap="square" stroke-linejoin="bevel" transform="matrix(1.99985,0,0,1.99985,-0.00639954,179.987)"
font-family="Noto Sans" font-size="9" font-weight="400" font-style="normal" 
>
</g>

<g fill="none" stroke="#000000" stroke-opacity="1" stroke-width="1" stroke-linecap="square" stroke-linejoin="round" transform="matrix(1.99985,0,0,1.99985,-0.00639954,179.987)"
font-family="Noto Sans" font-size="9" font-weight="400" font-style="normal" 
>
<rect x="287.48" y="-35.5" width="81.0008" height="35"/>
</g>

<g fill="none" stroke="#000000" stroke-opacity="1" stroke-width="1" stroke-linecap="square" stroke-linejoin="bevel" transform="matrix(1.99985,0,0,1.99985,-0.00639954,179.987)"
font-family="Noto Sans" font-size="9" font-weight="400" font-style="normal" 
>
</g>

<g fill="none" stroke="#000000" stroke-opacity="1" stroke-width="1" stroke-linecap="square" stroke-linejoin="bevel" transform="matrix(1.99985,0,0,1.99985,589.051,129.991)"
font-family="Noto Sans" font-size="9" font-weight="400" font-style="normal" 
>
</g>

<g fill="none" stroke="#000000" stroke-opacity="1" stroke-width="1" stroke-linecap="square" stroke-linejoin="bevel" transform="matrix(1.99985,0,0,1.99985,589.051,129.991)"
font-family="sans" font-size="11" font-weight="100" font-style="normal" 
>
</g>

<g fill="#000000" fill-opacity="1" stroke="#000000" stroke-opacity="1" stroke-width="1" stroke-linecap="square" stroke-linejoin="round" transform="matrix(1.99985,0,0,1.99985,589.051,129.991)"
font-family="sans" font-size="11" font-weight="100" font-style="normal" 
>
<path vector-effect="none" fill-rule="nonzero" d="M2.96875,2.98438 L3.53125,2.98438 L0.734375,12.0156 L0.171875,12.0156 L2.96875,2.98438 M4.98438,4.98438 L5.48438,4.98438 L5.48438,11.1094 C5.48438,11.9219 5.35938,12.4896 5.10938,12.8125 C4.85938,13.125 4.44792,13.2813 3.875,13.2813 L3.5,13.2813 L3.5,12.875 L3.76563,12.875 C4.17188,12.875 4.47917,12.7813 4.6875,12.5938 C4.88542,12.4167 4.98438,11.9219 4.98438,11.1094 L4.98438,4.98438 M4.98438,2.64063 L5.48438,2.64063 L5.48438,3.3125 L4.98438,3.3125 L4.98438,2.64063 M11.5781,6.01563 C11.224,5.52604 10.7396,5.28125 10.125,5.28125 C9.51042,5.28125 9.02604,5.52604 8.67188,6.01563 C8.31771,6.49479 8.14063,7.15104 8.14063,7.98438 C8.14063,8.83854 8.31771,9.51042 8.67188,10 C9.02604,10.4896 9.51042,10.7344 10.125,10.7344 C10.7396,10.7344 11.224,10.4896 11.5781,10 C11.9323,9.5 12.1094,8.82813 12.1094,7.98438 C12.1094,7.16146 11.9323,6.50521 11.5781,6.01563 M10.125,4.84375 C10.8854,4.84375 11.4896,5.13021 11.9375,5.70313 C12.3854,6.27604 12.6094,7.03646 12.6094,7.98438 C12.6094,8.97396 12.3854,9.75521 11.9375,10.3281 C11.4896,10.901 10.8854,11.1875 10.125,11.1875 C9.34375,11.1875 8.72917,10.901 8.28125,10.3281 C7.84375,9.75521 7.625,8.97396 7.625,7.98438 C7.625,7.02604 7.84896,6.26302 8.29688,5.69531 C8.74479,5.1276 9.35417,4.84375 10.125,4.84375 M14.7031,4.98438 L15.2031,4.98438 L15.2031,11 L14.7031,11 L14.7031,4.98438 M14.7031,2.64063 L15.2031,2.64063 L15.2031,3.3125 L14.7031,3.3125 L14.7031,2.64063 M22.3125,7.375 L22.3125,11 L21.8125,11 L21.8125,7.40625 C21.8125,6.625 21.6875,6.07552 21.4375,5.75781 C21.1875,5.4401 20.8177,5.28125 20.3281,5.28125 C19.7552,5.28125 19.2708,5.45313 18.875,5.79688 C18.4583,6.14063 18.25,6.73958 18.25,7.59375 L18.25,11 L17.7656,11 L17.7656,4.98438 L18.25,4.98438 L18.25,6.10938 C18.4271,5.74479 18.6615,5.46875 18.9531,5.28125 C19.3698,4.98958 19.8333,4.84375 20.3438,4.84375 C20.9479,4.84375 21.4271,5.04688 21.7813,5.45313 C22.1354,5.84896 22.3125,6.48958 22.3125,7.375 M25.25,3.28125 L25.25,4.98438 L27.2813,4.98438 L27.2813,5.40625 L25.25,5.40625 L25.25,9.01563 C25.25,9.47396 25.3073,9.79688 25.4219,9.98438 C25.6719,10.3802 26.0313,10.5781 26.5,10.5781 L27.2813,10.5781 L27.2813,11 L26.5156,11 C26.026,11 25.6094,10.8568 25.2656,10.5703 C24.9219,10.2839 24.75,9.76563 24.75,9.01563 L24.75,5.40625 L24.0313,5.40625 L24.0313,4.98438 L24.75,4.98438 L24.75,3.28125 L25.25,3.28125 M33.4063,13.1719 L33.4063,13.5938 L27.6875,13.5938 L27.6875,13.1719 L33.4063,13.1719 M37.9531,5.15625 L37.9531,5.70313 C37.599,5.50521 37.3802,5.39583 37.2969,5.375 C37.0469,5.32292 36.7344,5.29167 36.3594,5.28125 C35.7969,5.28125 35.3542,5.39063 35.0313,5.60938 C34.7813,5.79688 34.6563,6.11458 34.6563,6.5625 C34.6563,6.875 34.776,7.11458 35.0156,7.28125 C35.2552,7.46875 35.6042,7.61458 36.0625,7.71875 L36.4063,7.78125 C36.9792,7.90625 37.4115,8.08333 37.7031,8.3125 C38.0469,8.58333 38.224,8.92708 38.2344,9.34375 C38.2344,9.90625 38.0677,10.349 37.7344,10.6719 C37.3802,10.9948 36.8021,11.1563 36,11.1563 C35.5625,11.1563 35.2292,11.125 35,11.0625 C34.7188,10.9896 34.4271,10.8958 34.125,10.7813 L34.125,10.1563 C34.5625,10.4063 34.8438,10.5521 34.9688,10.5938 C35.3229,10.6875 35.6771,10.7344 36.0313,10.7344 C36.6042,10.7344 37.0313,10.6146 37.3125,10.375 C37.5938,10.125 37.7344,9.80729 37.7344,9.42188 C37.7344,9.08854 37.6406,8.84896 37.4531,8.70313 C37.1823,8.48438 36.7552,8.30729 36.1719,8.17188 L35.8281,8.09375 C35.3177,7.96875 34.9323,7.80208 34.6719,7.59375 C34.3385,7.32292 34.1719,6.99479 34.1719,6.60938 C34.1719,5.98438 34.3724,5.53385 34.7734,5.25781 C35.1745,4.98177 35.6667,4.84375 36.25,4.84375 C36.75,4.84375 37.0938,4.86979 37.2813,4.92188 C37.5104,4.98438 37.7344,5.0625 37.9531,5.15625 M40.7813,3.28125 L40.7813,4.98438 L42.8125,4.98438 L42.8125,5.40625 L40.7813,5.40625 L40.7813,9.01563 C40.7813,9.47396 40.8385,9.79688 40.9531,9.98438 C41.2031,10.3802 41.5625,10.5781 42.0313,10.5781 L42.8125,10.5781 L42.8125,11 L42.0469,11 C41.5573,11 41.1406,10.8568 40.7969,10.5703 C40.4531,10.2839 40.2813,9.76563 40.2813,9.01563 L40.2813,5.40625 L39.5625,5.40625 L39.5625,4.98438 L40.2813,4.98438 L40.2813,3.28125 L40.7813,3.28125 M46.9844,7.60938 C46.1823,7.60938 45.6068,7.75 45.2578,8.03125 C44.9089,8.3125 44.7344,8.72396 44.7344,9.26563 C44.7344,9.79688 44.8802,10.1745 45.1719,10.3984 C45.4635,10.6224 45.8073,10.7344 46.2031,10.7344 C46.9531,10.7344 47.4948,10.4167 47.8281,9.78125 C48.1615,9.13542 48.3281,8.53125 48.3281,7.96875 L48.3281,7.60938 L46.9844,7.60938 M48.8281,7.5625 L48.8281,11 L48.3281,11 L48.3281,9.35938 C48.0573,10.1615 47.6927,10.6719 47.2344,10.8906 C46.8802,11.0677 46.5208,11.1563 46.1563,11.1563 C45.5625,11.1563 45.0938,10.9948 44.75,10.6719 C44.4063,10.349 44.2344,9.8776 44.2344,9.25781 C44.2344,8.63802 44.4583,8.14063 44.9063,7.76563 C45.3542,7.39063 46.0833,7.20313 47.0938,7.20313 L48.3281,7.20313 L48.3281,7.10938 C48.3281,6.57813 48.1719,6.14063 47.8594,5.79688 C47.5677,5.45313 47.0729,5.28125 46.375,5.28125 C46.0313,5.28125 45.6823,5.34375 45.3281,5.46875 C45.099,5.55208 44.7969,5.71875 44.4219,5.96875 L44.4219,5.4375 C44.7448,5.23958 45.0469,5.09896 45.3281,5.01563 C45.724,4.90104 46.1042,4.84375 46.4688,4.84375 C47.1875,4.84375 47.776,5.05729 48.2344,5.48438 C48.6302,5.84896 48.8281,6.54167 48.8281,7.5625 M51.8281,3.28125 L51.8281,4.98438 L53.8594,4.98438 L53.8594,5.40625 L51.8281,5.40625 L51.8281,9.01563 C51.8281,9.47396 51.8854,9.79688 52,9.98438 C52.25,10.3802 52.6094,10.5781 53.0781,10.5781 L53.8594,10.5781 L53.8594,11 L53.0938,11 C52.6042,11 52.1875,10.8568 51.8438,10.5703 C51.5,10.2839 51.3281,9.76563 51.3281,9.01563 L51.3281,5.40625 L50.6094,5.40625 L50.6094,4.98438 L51.3281,4.98438 L51.3281,3.28125 L51.8281,3.28125 M60.3125,7.75 L60.3125,8.0625 L55.75,8.0625 C55.75,9.02083 55.9375,9.69792 56.3125,10.0938 C56.7292,10.5208 57.3438,10.7344 58.1563,10.7344 C58.375,10.7344 58.6615,10.6875 59.0156,10.5938 C59.3698,10.5 59.724,10.3594 60.0781,10.1719 L60.0781,10.6875 C59.724,10.8438 59.362,10.9609 58.9922,11.0391 C58.6224,11.1172 58.3281,11.1563 58.1094,11.1563 C57.1823,11.1563 56.4844,10.9063 56.0156,10.4063 C55.5052,9.875 55.25,9.09375 55.25,8.0625 C55.25,6.98958 55.4792,6.1875 55.9375,5.65625 C56.4167,5.11458 57.0833,4.84375 57.9375,4.84375 C58.7188,4.84375 59.3125,5.10417 59.7188,5.625 C60.1146,6.16667 60.3125,6.875 60.3125,7.75 M59.8125,7.64063 C59.8125,6.79688 59.6198,6.18229 59.2344,5.79688 C58.9219,5.45313 58.4896,5.28125 57.9375,5.28125 C57.3438,5.28125 56.8438,5.45833 56.4375,5.8125 C56.0625,6.14583 55.8385,6.75521 55.7656,7.64063 L59.8125,7.64063 M65.7969,5.15625 L65.7969,5.70313 C65.4427,5.50521 65.224,5.39583 65.1406,5.375 C64.8906,5.32292 64.5781,5.29167 64.2031,5.28125 C63.6406,5.28125 63.1979,5.39063 62.875,5.60938 C62.625,5.79688 62.5,6.11458 62.5,6.5625 C62.5,6.875 62.6198,7.11458 62.8594,7.28125 C63.099,7.46875 63.4479,7.61458 63.9063,7.71875 L64.25,7.78125 C64.8229,7.90625 65.2552,8.08333 65.5469,8.3125 C65.8906,8.58333 66.0677,8.92708 66.0781,9.34375 C66.0781,9.90625 65.9115,10.349 65.5781,10.6719 C65.224,10.9948 64.6458,11.1563 63.8438,11.1563 C63.4063,11.1563 63.0729,11.125 62.8438,11.0625 C62.5625,10.9896 62.2708,10.8958 61.9688,10.7813 L61.9688,10.1563 C62.4063,10.4063 62.6875,10.5521 62.8125,10.5938 C63.1667,10.6875 63.5208,10.7344 63.875,10.7344 C64.4479,10.7344 64.875,10.6146 65.1563,10.375 C65.4375,10.125 65.5781,9.80729 65.5781,9.42188 C65.5781,9.08854 65.4844,8.84896 65.2969,8.70313 C65.026,8.48438 64.599,8.30729 64.0156,8.17188 L63.6719,8.09375 C63.1615,7.96875 62.776,7.80208 62.5156,7.59375 C62.1823,7.32292 62.0156,6.99479 62.0156,6.60938 C62.0156,5.98438 62.2161,5.53385 62.6172,5.25781 C63.0182,4.98177 63.5104,4.84375 64.0938,4.84375 C64.5938,4.84375 64.9375,4.86979 65.125,4.92188 C65.3542,4.98438 65.5781,5.0625 65.7969,5.15625 "/>
</g>

<g fill="none" stroke="#000000" stroke-opacity="1" stroke-width="1" stroke-linecap="square" stroke-linejoin="bevel" transform="matrix(1.99985,0,0,1.99985,589.051,129.991)"
font-family="sans" font-size="11" font-weight="100" font-style="normal" 
>
</g>

<g fill="none" stroke="#000000" stroke-opacity="1" stroke-width="1" stroke-linecap="square" stroke-linejoin="bevel" transform="matrix(1.99985,0,0,1.99985,589.051,129.991)"
font-family="Noto Sans" font-size="9" font-weight="400" font-style="normal" 
>
</g>

<g fill="none" stroke="#000000" stroke-opacity="1" stroke-width="1" stroke-linecap="square" stroke-linejoin="bevel" transform="matrix(1.99985,0,0,1.99985,-0.00639954,179.987)"
font-family="Noto Sans" font-size="9" font-weight="400" font-style="normal" 
>
</g>

<g fill="none" stroke="#000000" stroke-opacity="1" stroke-width="1" stroke-linecap="square" stroke-linejoin="bevel" transform="matrix(1.99985,0,0,1.99985,-0.00639954,179.987)"
font-family="Noto Sans" font-size="9" font-weight="400" font-style="normal" 
>
</g>

<g fill="none" stroke="#000000" stroke-opacity="1" stroke-width="1" stroke-linecap="square" stroke-linejoin="bevel" transform="matrix(1.99985,0,0,1.99985,-0.00639954,179.987)"
font-family="Noto Sans" font-size="9" font-weight="400" font-style="normal" 
>
<rect x="575.56" y="-32" width="49.5" height="31.5"/>
<polyline fill="none" vector-effect="none" points="579,-35 628,-35 " />
<polyline fill="none" vector-effect="none" points="579,-35 576,-32 " />
<polyline fill="none" vector-effect="none" points="628,-35 625,-32 " />
<polyline fill="none" vector-effect="none" points="626,-1 628,-4 " />
<polyline fill="none" vector-effect="none" points="628,-35 628,-4 " />
</g>

<g fill="none" stroke="#000000" stroke-opacity="1" stroke-width="1" stroke-linecap="square" stroke-linejoin="bevel" transform="matrix(1.99985,0,0,1.99985,-0.00639954,179.987)"
font-family="Noto Sans" font-size="9" font-weight="400" font-style="normal" 
>
</g>

<g fill="none" stroke="#000000" stroke-opacity="1" stroke-width="1" stroke-linecap="square" stroke-linejoin="bevel" transform="matrix(1.99985,0,0,1.99985,1192.15,129.991)"
font-family="Noto Sans" font-size="9" font-weight="400" font-style="normal" 
>
</g>

<g fill="none" stroke="#000000" stroke-opacity="1" stroke-width="1" stroke-linecap="square" stroke-linejoin="bevel" transform="matrix(1.99985,0,0,1.99985,1192.15,129.991)"
font-family="sans" font-size="11" font-weight="100" font-style="normal" 
>
</g>

<g fill="#000000" fill-opacity="1" stroke="#000000" stroke-opacity="1" stroke-width="1" stroke-linecap="square" stroke-linejoin="round" transform="matrix(1.99985,0,0,1.99985,1192.15,129.991)"
font-family="sans" font-size="11" font-weight="100" font-style="normal" 
>
<path vector-effect="none" fill-rule="nonzero" d="M2.96875,2.98438 L3.53125,2.98438 L0.734375,12.0156 L0.171875,12.0156 L2.96875,2.98438 M5.46875,3.28125 L5.46875,4.98438 L7.5,4.98438 L7.5,5.40625 L5.46875,5.40625 L5.46875,9.01563 C5.46875,9.47396 5.52604,9.79688 5.64063,9.98438 C5.89063,10.3802 6.25,10.5781 6.71875,10.5781 L7.5,10.5781 L7.5,11 L6.73438,11 C6.24479,11 5.82813,10.8568 5.48438,10.5703 C5.14063,10.2839 4.96875,9.76563 4.96875,9.01563 L4.96875,5.40625 L4.25,5.40625 L4.25,4.98438 L4.96875,4.98438 L4.96875,3.28125 L5.46875,3.28125 M11.8438,2.64063 L11.8438,3.0625 L11.1563,3.0625 C10.7917,3.0625 10.5104,3.15625 10.3125,3.34375 C10.0729,3.57292 9.95313,3.94271 9.95313,4.45313 L9.95313,4.98438 L11.5781,4.98438 L11.5781,5.40625 L9.95313,5.40625 L9.95313,11 L9.45313,11 L9.45313,5.40625 L8.51563,5.40625 L8.51563,4.98438 L9.45313,4.98438 L9.45313,4.5625 C9.45313,3.89583 9.60938,3.41146 9.92188,3.10938 C10.224,2.79688 10.6354,2.64063 11.1563,2.64063 L11.8438,2.64063"/>
</g>

<g fill="none" stroke="#000000" stroke-opacity="1" stroke-width="1" stroke-linecap="square" stroke-linejoin="bevel" transform="matrix(1.99985,0,0,1.99985,1192.15,129.991)"
font-family="sans" font-size="11" font-weight="100" font-style="normal" 
>
</g>

<g fill="none" stroke="#000000" stroke-opacity="1" stroke-width="1" stroke-linecap="square" stroke-linejoin="bevel" transform="matrix(1.99985,0,0,1.99985,1192.15,129.991)"
font-family="Noto Sans" font-size="9" font-weight="400" font-style="normal" 
>
</g>

<g fill="none" stroke="#000000" stroke-opacity="1" stroke-width="1" stroke-linecap="square" stroke-linejoin="bevel" transform="matrix(1.99985,0,0,1.99985,-0.00639954,179.987)"
font-family="Noto Sans" font-size="9" font-weight="400" font-style="normal" 
>
</g>

<g fill="none" stroke="#000000" stroke-opacity="1" stroke-width="1" stroke-linecap="square" stroke-linejoin="bevel" transform="matrix(1.99985,0,0,1.99985,-0.00639954,179.987)"
font-family="Noto Sans" font-size="9" font-weight="400" font-style="normal" 
>
</g>

<g fill="none" stroke="#000000" stroke-opacity="1" stroke-width="1" stroke-linecap="square" stroke-linejoin="bevel" transform="matrix(1.99985,0,0,1.99985,-0.00639954,179.987)"
font-family="Noto Sans" font-size="9" font-weight="400" font-style="normal" 
>
</g>

<g fill="none" stroke="#000000" stroke-opacity="1" stroke-width="1" stroke-linecap="square" stroke-linejoin="round" transform="matrix(1.99985,0,0,1.99985,-0.00639954,179.987)"
font-family="Noto Sans" font-size="9" font-weight="400" font-style="normal" 
>
<ellipse cx="136.49" cy="-18" rx="37.1956" ry="17.5"/>
</g>

<g fill="none" stroke="#000000" stroke-opacity="1" stroke-width="1" stroke-linecap="square" stroke-linejoin="bevel" transform="matrix(1.99985,0,0,1.99985,-0.00639954,179.987)"
font-family="Noto Sans" font-size="9" font-weight="400" font-style="normal" 
>
</g>

<g fill="none" stroke="#000000" stroke-opacity="1" stroke-width="1" stroke-linecap="square" stroke-linejoin="bevel" transform="matrix(1.99985,0,0,1.99985,232.691,129.991)"
font-family="Noto Sans" font-size="9" font-weight="400" font-style="normal" 
>
</g>

<g fill="none" stroke="#000000" stroke-opacity="1" stroke-width="1" stroke-linecap="square" stroke-linejoin="bevel" transform="matrix(1.99985,0,0,1.99985,232.691,129.991)"
font-family="sans" font-size="11" font-weight="100" font-style="normal" 
>
</g>

<g fill="#000000" fill-opacity="1" stroke="#000000" stroke-opacity="1" stroke-width="1" stroke-linecap="square" stroke-linejoin="round" transform="matrix(1.99985,0,0,1.99985,232.691,129.991)"
font-family="sans" font-size="11" font-weight="100" font-style="normal" 
>
<path vector-effect="none" fill-rule="nonzero" d="M2.96875,2.98438 L3.53125,2.98438 L0.734375,12.0156 L0.171875,12.0156 L2.96875,2.98438 M4.9375,4.98438 L5.4375,4.98438 L5.4375,11 L4.9375,11 L4.9375,4.98438 M4.9375,2.64063 L5.4375,2.64063 L5.4375,3.3125 L4.9375,3.3125 L4.9375,2.64063 M12.5469,7.375 L12.5469,11 L12.0469,11 L12.0469,7.40625 C12.0469,6.625 11.9219,6.07552 11.6719,5.75781 C11.4219,5.4401 11.0521,5.28125 10.5625,5.28125 C9.98958,5.28125 9.50521,5.45313 9.10938,5.79688 C8.69271,6.14063 8.48438,6.73958 8.48438,7.59375 L8.48438,11 L8,11 L8,4.98438 L8.48438,4.98438 L8.48438,6.10938 C8.66146,5.74479 8.89583,5.46875 9.1875,5.28125 C9.60417,4.98958 10.0677,4.84375 10.5781,4.84375 C11.1823,4.84375 11.6615,5.04688 12.0156,5.45313 C12.3698,5.84896 12.5469,6.48958 12.5469,7.375 M15.4844,3.28125 L15.4844,4.98438 L17.5156,4.98438 L17.5156,5.40625 L15.4844,5.40625 L15.4844,9.01563 C15.4844,9.47396 15.5417,9.79688 15.6563,9.98438 C15.9063,10.3802 16.2656,10.5781 16.7344,10.5781 L17.5156,10.5781 L17.5156,11 L16.75,11 C16.2604,11 15.8438,10.8568 15.5,10.5703 C15.1563,10.2839 14.9844,9.76563 14.9844,9.01563 L14.9844,5.40625 L14.2656,5.40625 L14.2656,4.98438 L14.9844,4.98438 L14.9844,3.28125 L15.4844,3.28125 M23.6406,13.1719 L23.6406,13.5938 L17.9219,13.5938 L17.9219,13.1719 L23.6406,13.1719 M28.1875,5.15625 L28.1875,5.70313 C27.8333,5.50521 27.6146,5.39583 27.5313,5.375 C27.2813,5.32292 26.9688,5.29167 26.5938,5.28125 C26.0313,5.28125 25.5885,5.39063 25.2656,5.60938 C25.0156,5.79688 24.8906,6.11458 24.8906,6.5625 C24.8906,6.875 25.0104,7.11458 25.25,7.28125 C25.4896,7.46875 25.8385,7.61458 26.2969,7.71875 L26.6406,7.78125 C27.2135,7.90625 27.6458,8.08333 27.9375,8.3125 C28.2813,8.58333 28.4583,8.92708 28.4688,9.34375 C28.4688,9.90625 28.3021,10.349 27.9688,10.6719 C27.6146,10.9948 27.0365,11.1563 26.2344,11.1563 C25.7969,11.1563 25.4635,11.125 25.2344,11.0625 C24.9531,10.9896 24.6615,10.8958 24.3594,10.7813 L24.3594,10.1563 C24.7969,10.4063 25.0781,10.5521 25.2031,10.5938 C25.5573,10.6875 25.9115,10.7344 26.2656,10.7344 C26.8385,10.7344 27.2656,10.6146 27.5469,10.375 C27.8281,10.125 27.9688,9.80729 27.9688,9.42188 C27.9688,9.08854 27.875,8.84896 27.6875,8.70313 C27.4167,8.48438 26.9896,8.30729 26.4063,8.17188 L26.0625,8.09375 C25.5521,7.96875 25.1667,7.80208 24.9063,7.59375 C24.5729,7.32292 24.4063,6.99479 24.4063,6.60938 C24.4063,5.98438 24.6068,5.53385 25.0078,5.25781 C25.4089,4.98177 25.901,4.84375 26.4844,4.84375 C26.9844,4.84375 27.3281,4.86979 27.5156,4.92188 C27.7448,4.98438 27.9688,5.0625 28.1875,5.15625 M33.7656,5.40625 C33.6823,5.36458 33.5729,5.33333 33.4375,5.3125 C33.3125,5.29167 33.1615,5.28125 32.9844,5.28125 C32.3698,5.28125 31.8646,5.50521 31.4688,5.95313 C31.1458,6.31771 30.9844,6.94271 30.9844,7.82813 L30.9844,11 L30.5,11 L30.5,4.98438 L30.9844,4.98438 L30.9844,6.10938 C31.151,5.78646 31.3802,5.51563 31.6719,5.29688 C32.0677,4.99479 32.5365,4.84375 33.0781,4.84375 C33.224,4.84375 33.349,4.84896 33.4531,4.85938 C33.5573,4.85938 33.6615,4.86979 33.7656,4.89063 L33.7656,5.40625 M34.4688,4.98438 L34.9844,4.98438 L37.0156,10.4531 L39.0625,4.98438 L39.5781,4.98438 L37.3438,11 L36.7031,11 L34.4688,4.98438"/>
</g>

<g fill="none" stroke="#000000" stroke-opacity="1" stroke-width="1" stroke-linecap="square" stroke-linejoin="bevel" transform="matrix(1.99985,0,0,1.99985,232.691,129.991)"
font-family="sans" font-size="11" font-weight="100" font-style="normal" 
>
</g>

<g fill="none" stroke="#000000" stroke-opacity="1" stroke-width="1" stroke-linecap="square" stroke-linejoin="bevel" transform="matrix(1.99985,0,0,1.99985,232.691,129.991)"
font-family="Noto Sans" font-size="9" font-weight="400" font-style="normal" 
>
</g>

<g fill="none" stroke="#000000" stroke-opacity="1" stroke-width="1" stroke-linecap="square" stroke-linejoin="bevel" transform="matrix(1.99985,0,0,1.99985,-0.00639954,179.987)"
font-family="Noto Sans" font-size="9" font-weight="400" font-style="normal" 
>
</g>

<g fill="none" stroke="#000000" stroke-opacity="1" stroke-width="1" stroke-linecap="square" stroke-linejoin="bevel" transform="matrix(1.99985,0,0,1.99985,-0.00639954,179.987)"
font-family="Noto Sans" font-size="9" font-weight="400" font-style="normal" 
>
</g>

<g fill="none" stroke="#000000" stroke-opacity="1" stroke-width="1" stroke-linecap="square" stroke-linejoin="bevel" transform="matrix(1.99985,0,0,1.99985,-0.00639954,179.987)"
font-family="Noto Sans" font-size="9" font-weight="400" font-style="normal" 
>
</g>

<g fill="none" stroke="#000000" stroke-opacity="1" stroke-width="1" stroke-linecap="square" stroke-linejoin="round" transform="matrix(1.99985,0,0,1.99985,-0.00639954,179.987)"
font-family="Noto Sans" font-size="9" font-weight="400" font-style="normal" 
>
<ellipse cx="685.31" cy="-18" rx="41.746" ry="17.5"/>
</g>

<g fill="none" stroke="#000000" stroke-opacity="1" stroke-width="1" stroke-linecap="square" stroke-linejoin="bevel" transform="matrix(1.99985,0,0,1.99985,-0.00639954,179.987)"
font-family="Noto Sans" font-size="9" font-weight="400" font-style="normal" 
>
</g>

<g fill="none" stroke="#000000" stroke-opacity="1" stroke-width="1" stroke-linecap="square" stroke-linejoin="bevel" transform="matrix(1.99985,0,0,1.99985,1327.22,129.991)"
font-family="Noto Sans" font-size="9" font-weight="400" font-style="normal" 
>
</g>

<g fill="none" stroke="#000000" stroke-opacity="1" stroke-width="1" stroke-linecap="square" stroke-linejoin="bevel" transform="matrix(1.99985,0,0,1.99985,1327.22,129.991)"
font-family="sans" font-size="11" font-weight="100" font-style="normal" 
>
</g>

<g fill="#000000" fill-opacity="1" stroke="#000000" stroke-opacity="1" stroke-width="1" stroke-linecap="square" stroke-linejoin="round" transform="matrix(1.99985,0,0,1.99985,1327.22,129.991)"
font-family="sans" font-size="11" font-weight="100" font-style="normal" 
>
<path vector-effect="none" fill-rule="nonzero" d="M5.79688,7.375 L5.79688,11 L5.29688,11 L5.29688,7.40625 C5.29688,6.625 5.17188,6.07552 4.92188,5.75781 C4.67188,5.4401 4.30208,5.28125 3.8125,5.28125 C3.23958,5.28125 2.75521,5.45313 2.35938,5.79688 C1.94271,6.14063 1.73438,6.73958 1.73438,7.59375 L1.73438,11 L1.25,11 L1.25,4.98438 L1.73438,4.98438 L1.73438,6.10938 C1.91146,5.74479 2.14583,5.46875 2.4375,5.28125 C2.85417,4.98958 3.31771,4.84375 3.82813,4.84375 C4.43229,4.84375 4.91146,5.04688 5.26563,5.45313 C5.61979,5.84896 5.79688,6.48958 5.79688,7.375 M12.5781,13.1719 L12.5781,13.5938 L6.85938,13.5938 L6.85938,13.1719 L12.5781,13.1719 M18.0781,13.1719 L18.0781,13.5938 L12.3594,13.5938 L12.3594,13.1719 L18.0781,13.1719 M23.5781,13.1719 L23.5781,13.5938 L17.8594,13.5938 L17.8594,13.1719 L23.5781,13.1719 M27.9844,5.40625 C27.901,5.36458 27.7917,5.33333 27.6563,5.3125 C27.5313,5.29167 27.3802,5.28125 27.2031,5.28125 C26.5885,5.28125 26.0833,5.50521 25.6875,5.95313 C25.3646,6.31771 25.2031,6.94271 25.2031,7.82813 L25.2031,11 L24.7188,11 L24.7188,4.98438 L25.2031,4.98438 L25.2031,6.10938 C25.3698,5.78646 25.599,5.51563 25.8906,5.29688 C26.2865,4.99479 26.7552,4.84375 27.2969,4.84375 C27.4427,4.84375 27.5677,4.84896 27.6719,4.85938 C27.776,4.85938 27.8802,4.86979 27.9844,4.89063 L27.9844,5.40625 M28.6875,4.98438 L29.2031,4.98438 L31.2344,10.4531 L33.2813,4.98438 L33.7969,4.98438 L31.5625,11 L30.9219,11 L28.6875,4.98438 M35.7188,4.98438 L36.2188,4.98438 L36.2188,11 L35.7188,11 L35.7188,4.98438 M35.7188,2.64063 L36.2188,2.64063 L36.2188,3.3125 L35.7188,3.3125 L35.7188,2.64063 M38.1406,4.98438 L42.8281,4.98438 L42.8281,5.54688 L38.4844,10.5781 L42.8281,10.5781 L42.8281,11 L38,11 L38,10.4531 L42.3438,5.40625 L38.1406,5.40625 L38.1406,4.98438"/>
</g>

<g fill="none" stroke="#000000" stroke-opacity="1" stroke-width="1" stroke-linecap="square" stroke-linejoin="bevel" transform="matrix(1.99985,0,0,1.99985,1327.22,129.991)"
font-family="sans" font-size="11" font-weight="100" font-style="normal" 
>
</g>

<g fill="none" stroke="#000000" stroke-opacity="1" stroke-width="1" stroke-linecap="square" stroke-linejoin="bevel" transform="matrix(1.99985,0,0,1.99985,1327.22,129.991)"
font-family="Noto Sans" font-size="9" font-weight="400" font-style="normal" 
>
</g>

<g fill="none" stroke="#000000" stroke-opacity="1" stroke-width="1" stroke-linecap="square" stroke-linejoin="bevel" transform="matrix(1.99985,0,0,1.99985,-0.00639954,179.987)"
font-family="Noto Sans" font-size="9" font-weight="400" font-style="normal" 
>
</g>

<g fill="none" stroke="#000000" stroke-opacity="1" stroke-width="1" stroke-linecap="square" stroke-linejoin="bevel" transform="matrix(1.99985,0,0,1.99985,-0.00639954,179.987)"
font-family="Noto Sans" font-size="9" font-weight="400" font-style="normal" 
>
</g>

<g fill="none" stroke="#000000" stroke-opacity="1" stroke-width="1" stroke-linecap="square" stroke-linejoin="bevel" transform="matrix(1.99985,0,0,1.99985,-0.00639954,179.987)"
font-family="Noto Sans" font-size="9" font-weight="400" font-style="normal" 
>
</g>

<g fill="none" stroke="#000000" stroke-opacity="1" stroke-width="1" stroke-linecap="square" stroke-linejoin="round" transform="matrix(1.99985,0,0,1.99985,-0.00639954,179.987)"
font-family="Noto Sans" font-size="9" font-weight="400" font-style="normal" 
>
<ellipse cx="472.02" cy="-18" rx="88.5424" ry="17.5"/>
</g>

<g fill="none" stroke="#000000" stroke-opacity="1" stroke-width="1" stroke-linecap="square" stroke-linejoin="bevel" transform="matrix(1.99985,0,0,1.99985,-0.00639954,179.987)"
font-family="Noto Sans" font-size="9" font-weight="400" font-style="normal" 
>
</g>

<g fill="none" stroke="#000000" stroke-opacity="1" stroke-width="1" stroke-linecap="square" stroke-linejoin="bevel" transform="matrix(1.99985,0,0,1.99985,821.224,129.991)"
font-family="Noto Sans" font-size="9" font-weight="400" font-style="normal" 
>
</g>

<g fill="none" stroke="#000000" stroke-opacity="1" stroke-width="1" stroke-linecap="square" stroke-linejoin="bevel" transform="matrix(1.99985,0,0,1.99985,821.224,129.991)"
font-family="sans" font-size="11" font-weight="100" font-style="normal" 
>
</g>

<g fill="#000000" fill-opacity="1" stroke="#000000" stroke-opacity="1" stroke-width="1" stroke-linecap="square" stroke-linejoin="round" transform="matrix(1.99985,0,0,1.99985,821.224,129.991)"
font-family="sans" font-size="11" font-weight="100" font-style="normal" 
>
<path vector-effect="none" fill-rule="nonzero" d="M2.96875,2.98438 L3.53125,2.98438 L0.734375,12.0156 L0.171875,12.0156 L2.96875,2.98438 M8.21875,5.40625 C8.13542,5.36458 8.02604,5.33333 7.89063,5.3125 C7.76563,5.29167 7.61458,5.28125 7.4375,5.28125 C6.82292,5.28125 6.31771,5.50521 5.92188,5.95313 C5.59896,6.31771 5.4375,6.94271 5.4375,7.82813 L5.4375,11 L4.95313,11 L4.95313,4.98438 L5.4375,4.98438 L5.4375,6.10938 C5.60417,5.78646 5.83333,5.51563 6.125,5.29688 C6.52083,4.99479 6.98958,4.84375 7.53125,4.84375 C7.67708,4.84375 7.80208,4.84896 7.90625,4.85938 C8.01042,4.85938 8.11458,4.86979 8.21875,4.89063 L8.21875,5.40625 M13.0469,6.01563 C12.6927,5.52604 12.2083,5.28125 11.5938,5.28125 C10.9792,5.28125 10.4948,5.52604 10.1406,6.01563 C9.78646,6.49479 9.60938,7.15104 9.60938,7.98438 C9.60938,8.83854 9.78646,9.51042 10.1406,10 C10.4948,10.4896 10.9792,10.7344 11.5938,10.7344 C12.2083,10.7344 12.6927,10.4896 13.0469,10 C13.401,9.5 13.5781,8.82813 13.5781,7.98438 C13.5781,7.16146 13.401,6.50521 13.0469,6.01563 M11.5938,4.84375 C12.3542,4.84375 12.9583,5.13021 13.4063,5.70313 C13.8542,6.27604 14.0781,7.03646 14.0781,7.98438 C14.0781,8.97396 13.8542,9.75521 13.4063,10.3281 C12.9583,10.901 12.3542,11.1875 11.5938,11.1875 C10.8125,11.1875 10.1979,10.901 9.75,10.3281 C9.3125,9.75521 9.09375,8.97396 9.09375,7.98438 C9.09375,7.02604 9.31771,6.26302 9.76563,5.69531 C10.2135,5.1276 10.8229,4.84375 11.5938,4.84375 M19.9063,10.0938 C20.3229,9.67708 20.5313,8.97917 20.5313,8 C20.5313,7.02083 20.3229,6.32292 19.9063,5.90625 C19.4896,5.48958 19.0521,5.28125 18.5938,5.28125 C18.1458,5.28125 17.7135,5.48958 17.2969,5.90625 C16.8906,6.32292 16.6875,7.02083 16.6875,8 C16.6875,8.97917 16.8906,9.67708 17.2969,10.0938 C17.7135,10.5104 18.1458,10.7188 18.5938,10.7188 C19.0521,10.7188 19.4896,10.5104 19.9063,10.0938 M16.6719,6.35938 C16.901,5.83854 17.1458,5.47917 17.4063,5.28125 C17.8125,4.98958 18.1979,4.84375 18.5625,4.84375 C19.2708,4.84375 19.862,5.13281 20.3359,5.71094 C20.8099,6.28906 21.0469,7.05208 21.0469,8 C21.0469,8.94792 20.8099,9.71094 20.3359,10.2891 C19.862,10.8672 19.2708,11.1563 18.5625,11.1563 C18.1979,11.1563 17.8125,11.0052 17.4063,10.7031 C17.1458,10.5156 16.901,10.1615 16.6719,9.64063 L16.6719,11 L16.1875,11 L16.1875,2.64063 L16.6719,2.64063 L16.6719,6.35938 M26.7344,6.01563 C26.3802,5.52604 25.8958,5.28125 25.2813,5.28125 C24.6667,5.28125 24.1823,5.52604 23.8281,6.01563 C23.474,6.49479 23.2969,7.15104 23.2969,7.98438 C23.2969,8.83854 23.474,9.51042 23.8281,10 C24.1823,10.4896 24.6667,10.7344 25.2813,10.7344 C25.8958,10.7344 26.3802,10.4896 26.7344,10 C27.0885,9.5 27.2656,8.82813 27.2656,7.98438 C27.2656,7.16146 27.0885,6.50521 26.7344,6.01563 M25.2813,4.84375 C26.0417,4.84375 26.6458,5.13021 27.0938,5.70313 C27.5417,6.27604 27.7656,7.03646 27.7656,7.98438 C27.7656,8.97396 27.5417,9.75521 27.0938,10.3281 C26.6458,10.901 26.0417,11.1875 25.2813,11.1875 C24.5,11.1875 23.8854,10.901 23.4375,10.3281 C23,9.75521 22.7813,8.97396 22.7813,7.98438 C22.7813,7.02604 23.0052,6.26302 23.4531,5.69531 C23.901,5.1276 24.5104,4.84375 25.2813,4.84375 M30.3906,3.28125 L30.3906,4.98438 L32.4219,4.98438 L32.4219,5.40625 L30.3906,5.40625 L30.3906,9.01563 C30.3906,9.47396 30.4479,9.79688 30.5625,9.98438 C30.8125,10.3802 31.1719,10.5781 31.6406,10.5781 L32.4219,10.5781 L32.4219,11 L31.6563,11 C31.1667,11 30.75,10.8568 30.4063,10.5703 C30.0625,10.2839 29.8906,9.76563 29.8906,9.01563 L29.8906,5.40625 L29.1719,5.40625 L29.1719,4.98438 L29.8906,4.98438 L29.8906,3.28125 L30.3906,3.28125 M38.5469,13.1719 L38.5469,13.5938 L32.8281,13.5938 L32.8281,13.1719 L38.5469,13.1719 M43.0938,5.15625 L43.0938,5.70313 C42.7396,5.50521 42.5208,5.39583 42.4375,5.375 C42.1875,5.32292 41.875,5.29167 41.5,5.28125 C40.9375,5.28125 40.4948,5.39063 40.1719,5.60938 C39.9219,5.79688 39.7969,6.11458 39.7969,6.5625 C39.7969,6.875 39.9167,7.11458 40.1563,7.28125 C40.3958,7.46875 40.7448,7.61458 41.2031,7.71875 L41.5469,7.78125 C42.1198,7.90625 42.5521,8.08333 42.8438,8.3125 C43.1875,8.58333 43.3646,8.92708 43.375,9.34375 C43.375,9.90625 43.2083,10.349 42.875,10.6719 C42.5208,10.9948 41.9427,11.1563 41.1406,11.1563 C40.7031,11.1563 40.3698,11.125 40.1406,11.0625 C39.8594,10.9896 39.5677,10.8958 39.2656,10.7813 L39.2656,10.1563 C39.7031,10.4063 39.9844,10.5521 40.1094,10.5938 C40.4635,10.6875 40.8177,10.7344 41.1719,10.7344 C41.7448,10.7344 42.1719,10.6146 42.4531,10.375 C42.7344,10.125 42.875,9.80729 42.875,9.42188 C42.875,9.08854 42.7813,8.84896 42.5938,8.70313 C42.3229,8.48438 41.8958,8.30729 41.3125,8.17188 L40.9688,8.09375 C40.4583,7.96875 40.0729,7.80208 39.8125,7.59375 C39.4792,7.32292 39.3125,6.99479 39.3125,6.60938 C39.3125,5.98438 39.513,5.53385 39.9141,5.25781 C40.3151,4.98177 40.8073,4.84375 41.3906,4.84375 C41.8906,4.84375 42.2344,4.86979 42.4219,4.92188 C42.651,4.98438 42.875,5.0625 43.0938,5.15625 M45.9219,3.28125 L45.9219,4.98438 L47.9531,4.98438 L47.9531,5.40625 L45.9219,5.40625 L45.9219,9.01563 C45.9219,9.47396 45.9792,9.79688 46.0938,9.98438 C46.3438,10.3802 46.7031,10.5781 47.1719,10.5781 L47.9531,10.5781 L47.9531,11 L47.1875,11 C46.6979,11 46.2813,10.8568 45.9375,10.5703 C45.5938,10.2839 45.4219,9.76563 45.4219,9.01563 L45.4219,5.40625 L44.7031,5.40625 L44.7031,4.98438 L45.4219,4.98438 L45.4219,3.28125 L45.9219,3.28125 M52.125,7.60938 C51.3229,7.60938 50.7474,7.75 50.3984,8.03125 C50.0495,8.3125 49.875,8.72396 49.875,9.26563 C49.875,9.79688 50.0208,10.1745 50.3125,10.3984 C50.6042,10.6224 50.9479,10.7344 51.3438,10.7344 C52.0938,10.7344 52.6354,10.4167 52.9688,9.78125 C53.3021,9.13542 53.4688,8.53125 53.4688,7.96875 L53.4688,7.60938 L52.125,7.60938 M53.9688,7.5625 L53.9688,11 L53.4688,11 L53.4688,9.35938 C53.1979,10.1615 52.8333,10.6719 52.375,10.8906 C52.0208,11.0677 51.6615,11.1563 51.2969,11.1563 C50.7031,11.1563 50.2344,10.9948 49.8906,10.6719 C49.5469,10.349 49.375,9.8776 49.375,9.25781 C49.375,8.63802 49.599,8.14063 50.0469,7.76563 C50.4948,7.39063 51.224,7.20313 52.2344,7.20313 L53.4688,7.20313 L53.4688,7.10938 C53.4688,6.57813 53.3125,6.14063 53,5.79688 C52.7083,5.45313 52.2135,5.28125 51.5156,5.28125 C51.1719,5.28125 50.8229,5.34375 50.4688,5.46875 C50.2396,5.55208 49.9375,5.71875 49.5625,5.96875 L49.5625,5.4375 C49.8854,5.23958 50.1875,5.09896 50.4688,5.01563 C50.8646,4.90104 51.2448,4.84375 51.6094,4.84375 C52.3281,4.84375 52.9167,5.05729 53.375,5.48438 C53.7708,5.84896 53.9688,6.54167 53.9688,7.5625 M56.9688,3.28125 L56.9688,4.98438 L59,4.98438 L59,5.40625 L56.9688,5.40625 L56.9688,9.01563 C56.9688,9.47396 57.026,9.79688 57.1406,9.98438 C57.3906,10.3802 57.75,10.5781 58.2188,10.5781 L59,10.5781 L59,11 L58.2344,11 C57.7448,11 57.3281,10.8568 56.9844,10.5703 C56.6406,10.2839 56.4688,9.76563 56.4688,9.01563 L56.4688,5.40625 L55.75,5.40625 L55.75,4.98438 L56.4688,4.98438 L56.4688,3.28125 L56.9688,3.28125 M65.4531,7.75 L65.4531,8.0625 L60.8906,8.0625 C60.8906,9.02083 61.0781,9.69792 61.4531,10.0938 C61.8698,10.5208 62.4844,10.7344 63.2969,10.7344 C63.5156,10.7344 63.8021,10.6875 64.1563,10.5938 C64.5104,10.5 64.8646,10.3594 65.2188,10.1719 L65.2188,10.6875 C64.8646,10.8438 64.5026,10.9609 64.1328,11.0391 C63.763,11.1172 63.4688,11.1563 63.25,11.1563 C62.3229,11.1563 61.625,10.9063 61.1563,10.4063 C60.6458,9.875 60.3906,9.09375 60.3906,8.0625 C60.3906,6.98958 60.6198,6.1875 61.0781,5.65625 C61.5573,5.11458 62.224,4.84375 63.0781,4.84375 C63.8594,4.84375 64.4531,5.10417 64.8594,5.625 C65.2552,6.16667 65.4531,6.875 65.4531,7.75 M64.9531,7.64063 C64.9531,6.79688 64.7604,6.18229 64.375,5.79688 C64.0625,5.45313 63.6302,5.28125 63.0781,5.28125 C62.4844,5.28125 61.9844,5.45833 61.5781,5.8125 C61.2031,6.14583 60.9792,6.75521 60.9063,7.64063 L64.9531,7.64063 M71.8906,13.1719 L71.8906,13.5938 L66.1719,13.5938 L66.1719,13.1719 L71.8906,13.1719 M73.5156,9.64063 L73.5156,13.2813 L73.0313,13.2813 L73.0313,4.98438 L73.5156,4.98438 L73.5156,6.35938 C73.7448,5.83854 73.9896,5.47917 74.25,5.28125 C74.6563,4.98958 75.0417,4.84375 75.4063,4.84375 C76.1146,4.84375 76.7057,5.13281 77.1797,5.71094 C77.6536,6.28906 77.8906,7.05208 77.8906,8 C77.8906,8.94792 77.6536,9.71094 77.1797,10.2891 C76.7057,10.8672 76.1146,11.1563 75.4063,11.1563 C75.0417,11.1563 74.6563,11.0052 74.25,10.7031 C73.9896,10.5156 73.7448,10.1615 73.5156,9.64063 M76.75,10.0938 C77.1667,9.67708 77.375,8.97917 77.375,8 C77.375,7.02083 77.1667,6.32292 76.75,5.90625 C76.3333,5.48958 75.8958,5.28125 75.4375,5.28125 C74.9896,5.28125 74.5573,5.48958 74.1406,5.90625 C73.7344,6.32292 73.5313,7.02083 73.5313,8 C73.5313,8.97917 73.7344,9.67708 74.1406,10.0938 C74.5573,10.5104 74.9896,10.7188 75.4375,10.7188 C75.8958,10.7188 76.3333,10.5104 76.75,10.0938 M79.9375,8.60938 L79.9375,4.98438 L80.4219,4.98438 L80.4219,8.57813 C80.4219,9.35938 80.5469,9.90885 80.7969,10.2266 C81.0469,10.5443 81.4167,10.7031 81.9063,10.7031 C82.4792,10.7031 82.9688,10.5313 83.375,10.1875 C83.7813,9.84375 83.9844,9.24479 83.9844,8.39063 L83.9844,4.98438 L84.4688,4.98438 L84.4688,11 L83.9844,11 L83.9844,9.875 C83.8073,10.2396 83.5729,10.5156 83.2813,10.7031 C82.8646,10.9948 82.401,11.1406 81.8906,11.1406 C81.2969,11.1406 80.8229,10.9375 80.4688,10.5313 C80.1146,10.1354 79.9375,9.49479 79.9375,8.60938 M90.6875,10.0938 C91.1042,9.67708 91.3125,8.97917 91.3125,8 C91.3125,7.02083 91.1042,6.32292 90.6875,5.90625 C90.2708,5.48958 89.8333,5.28125 89.375,5.28125 C88.9271,5.28125 88.4948,5.48958 88.0781,5.90625 C87.6719,6.32292 87.4688,7.02083 87.4688,8 C87.4688,8.97917 87.6719,9.67708 88.0781,10.0938 C88.4948,10.5104 88.9271,10.7188 89.375,10.7188 C89.8333,10.7188 90.2708,10.5104 90.6875,10.0938 M87.4531,6.35938 C87.6823,5.83854 87.9271,5.47917 88.1875,5.28125 C88.5938,4.98958 88.9792,4.84375 89.3438,4.84375 C90.0521,4.84375 90.6432,5.13281 91.1172,5.71094 C91.5911,6.28906 91.8281,7.05208 91.8281,8 C91.8281,8.94792 91.5911,9.71094 91.1172,10.2891 C90.6432,10.8672 90.0521,11.1563 89.3438,11.1563 C88.9792,11.1563 88.5938,11.0052 88.1875,10.7031 C87.9271,10.5156 87.6823,10.1615 87.4531,9.64063 L87.4531,11 L86.9688,11 L86.9688,2.64063 L87.4531,2.64063 L87.4531,6.35938 M93.9375,2.64063 L94.4219,2.64063 L94.4219,11 L93.9375,11 L93.9375,2.64063 M96.9688,4.98438 L97.4688,4.98438 L97.4688,11 L96.9688,11 L96.9688,4.98438 M96.9688,2.64063 L97.4688,2.64063 L97.4688,3.3125 L96.9688,3.3125 L96.9688,2.64063 M103.438,5.15625 L103.438,5.70313 C103.083,5.50521 102.865,5.39583 102.781,5.375 C102.531,5.32292 102.219,5.29167 101.844,5.28125 C101.281,5.28125 100.839,5.39063 100.516,5.60938 C100.266,5.79688 100.141,6.11458 100.141,6.5625 C100.141,6.875 100.26,7.11458 100.5,7.28125 C100.74,7.46875 101.089,7.61458 101.547,7.71875 L101.891,7.78125 C102.464,7.90625 102.896,8.08333 103.188,8.3125 C103.531,8.58333 103.708,8.92708 103.719,9.34375 C103.719,9.90625 103.552,10.349 103.219,10.6719 C102.865,10.9948 102.286,11.1563 101.484,11.1563 C101.047,11.1563 100.714,11.125 100.484,11.0625 C100.203,10.9896 99.9115,10.8958 99.6094,10.7813 L99.6094,10.1563 C100.047,10.4063 100.328,10.5521 100.453,10.5938 C100.807,10.6875 101.161,10.7344 101.516,10.7344 C102.089,10.7344 102.516,10.6146 102.797,10.375 C103.078,10.125 103.219,9.80729 103.219,9.42188 C103.219,9.08854 103.125,8.84896 102.938,8.70313 C102.667,8.48438 102.24,8.30729 101.656,8.17188 L101.313,8.09375 C100.802,7.96875 100.417,7.80208 100.156,7.59375 C99.8229,7.32292 99.6563,6.99479 99.6563,6.60938 C99.6563,5.98438 99.8568,5.53385 100.258,5.25781 C100.659,4.98177 101.151,4.84375 101.734,4.84375 C102.234,4.84375 102.578,4.86979 102.766,4.92188 C102.995,4.98438 103.219,5.0625 103.438,5.15625 M110.297,7.375 L110.297,11 L109.797,11 L109.797,7.40625 C109.797,6.625 109.667,6.07552 109.406,5.75781 C109.146,5.4401 108.75,5.28125 108.219,5.28125 C107.604,5.28125 107.12,5.45833 106.766,5.8125 C106.411,6.16667 106.234,6.76042 106.234,7.59375 L106.234,11 L105.75,11 L105.75,2.64063 L106.234,2.64063 L106.234,6.09375 C106.349,5.79167 106.557,5.52083 106.859,5.28125 C107.203,4.98958 107.693,4.84375 108.328,4.84375 C108.932,4.84375 109.411,5.05729 109.766,5.48438 C110.12,5.91146 110.297,6.54167 110.297,7.375 M117.406,7.75 L117.406,8.0625 L112.844,8.0625 C112.844,9.02083 113.031,9.69792 113.406,10.0938 C113.823,10.5208 114.438,10.7344 115.25,10.7344 C115.469,10.7344 115.755,10.6875 116.109,10.5938 C116.464,10.5 116.818,10.3594 117.172,10.1719 L117.172,10.6875 C116.818,10.8438 116.456,10.9609 116.086,11.0391 C115.716,11.1172 115.422,11.1563 115.203,11.1563 C114.276,11.1563 113.578,10.9063 113.109,10.4063 C112.599,9.875 112.344,9.09375 112.344,8.0625 C112.344,6.98958 112.573,6.1875 113.031,5.65625 C113.51,5.11458 114.177,4.84375 115.031,4.84375 C115.813,4.84375 116.406,5.10417 116.813,5.625 C117.208,6.16667 117.406,6.875 117.406,7.75 M116.906,7.64063 C116.906,6.79688 116.714,6.18229 116.328,5.79688 C116.016,5.45313 115.583,5.28125 115.031,5.28125 C114.438,5.28125 113.938,5.45833 113.531,5.8125 C113.156,6.14583 112.932,6.75521 112.859,7.64063 L116.906,7.64063 M122.75,5.40625 C122.667,5.36458 122.557,5.33333 122.422,5.3125 C122.297,5.29167 122.146,5.28125 121.969,5.28125 C121.354,5.28125 120.849,5.50521 120.453,5.95313 C120.13,6.31771 119.969,6.94271 119.969,7.82813 L119.969,11 L119.484,11 L119.484,4.98438 L119.969,4.98438 L119.969,6.10938 C120.135,5.78646 120.365,5.51563 120.656,5.29688 C121.052,4.99479 121.521,4.84375 122.063,4.84375 C122.208,4.84375 122.333,4.84896 122.438,4.85938 C122.542,4.85938 122.646,4.86979 122.75,4.89063 L122.75,5.40625"/>
</g>

<g fill="none" stroke="#000000" stroke-opacity="1" stroke-width="1" stroke-linecap="square" stroke-linejoin="bevel" transform="matrix(1.99985,0,0,1.99985,821.224,129.991)"
font-family="sans" font-size="11" font-weight="100" font-style="normal" 
>
</g>

<g fill="none" stroke="#000000" stroke-opacity="1" stroke-width="1" stroke-linecap="square" stroke-linejoin="bevel" transform="matrix(1.99985,0,0,1.99985,821.224,129.991)"
font-family="Noto Sans" font-size="9" font-weight="400" font-style="normal" 
>
</g>

<g fill="none" stroke="#000000" stroke-opacity="1" stroke-width="1" stroke-linecap="square" stroke-linejoin="bevel" transform="matrix(1.99985,0,0,1.99985,-0.00639954,179.987)"
font-family="Noto Sans" font-size="9" font-weight="400" font-style="normal" 
>
</g>

<g fill="none" stroke="#000000" stroke-opacity="1" stroke-width="1" stroke-linecap="square" stroke-linejoin="bevel" transform="matrix(1.99985,0,0,1.99985,-0.00639954,179.987)"
font-family="Noto Sans" font-size="9" font-weight="400" font-style="normal" 
>
</g>

<g fill="none" stroke="#000000" stroke-opacity="1" stroke-width="1" stroke-linecap="square" stroke-linejoin="bevel" transform="matrix(1.99985,0,0,1.99985,-0.00639954,179.987)"
font-family="Noto Sans" font-size="9" font-weight="400" font-style="normal" 
>
</g>

<g fill="none" stroke="#000000" stroke-opacity="1" stroke-width="1" stroke-linecap="square" stroke-linejoin="round" transform="matrix(1.99985,0,0,1.99985,-0.00639954,179.987)"
font-family="Noto Sans" font-size="9" font-weight="400" font-style="normal" 
>
<ellipse cx="136.49" cy="-72" rx="135.987" ry="17.5"/>
</g>

<g fill="none" stroke="#000000" stroke-opacity="1" stroke-width="1" stroke-linecap="square" stroke-linejoin="bevel" transform="matrix(1.99985,0,0,1.99985,-0.00639954,179.987)"
font-family="Noto Sans" font-size="9" font-weight="400" font-style="normal" 
>
</g>

<g fill="none" stroke="#000000" stroke-opacity="1" stroke-width="1" stroke-linecap="square" stroke-linejoin="bevel" transform="matrix(1.99985,0,0,1.99985,76.2337,21.9984)"
font-family="Noto Sans" font-size="9" font-weight="400" font-style="normal" 
>
</g>

<g fill="none" stroke="#000000" stroke-opacity="1" stroke-width="1" stroke-linecap="square" stroke-linejoin="bevel" transform="matrix(1.99985,0,0,1.99985,76.2337,21.9984)"
font-family="sans" font-size="11" font-weight="100" font-style="normal" 
>
</g>

<g fill="#000000" fill-opacity="1" stroke="#000000" stroke-opacity="1" stroke-width="1" stroke-linecap="square" stroke-linejoin="round" transform="matrix(1.99985,0,0,1.99985,76.2337,21.9984)"
font-family="sans" font-size="11" font-weight="100" font-style="normal" 
>
<path vector-effect="none" fill-rule="nonzero" d="M2.96875,2.98438 L3.53125,2.98438 L0.734375,12.0156 L0.171875,12.0156 L2.96875,2.98438 M8.21875,5.40625 C8.13542,5.36458 8.02604,5.33333 7.89063,5.3125 C7.76563,5.29167 7.61458,5.28125 7.4375,5.28125 C6.82292,5.28125 6.31771,5.50521 5.92188,5.95313 C5.59896,6.31771 5.4375,6.94271 5.4375,7.82813 L5.4375,11 L4.95313,11 L4.95313,4.98438 L5.4375,4.98438 L5.4375,6.10938 C5.60417,5.78646 5.83333,5.51563 6.125,5.29688 C6.52083,4.99479 6.98958,4.84375 7.53125,4.84375 C7.67708,4.84375 7.80208,4.84896 7.90625,4.85938 C8.01042,4.85938 8.11458,4.86979 8.21875,4.89063 L8.21875,5.40625 M13.0469,6.01563 C12.6927,5.52604 12.2083,5.28125 11.5938,5.28125 C10.9792,5.28125 10.4948,5.52604 10.1406,6.01563 C9.78646,6.49479 9.60938,7.15104 9.60938,7.98438 C9.60938,8.83854 9.78646,9.51042 10.1406,10 C10.4948,10.4896 10.9792,10.7344 11.5938,10.7344 C12.2083,10.7344 12.6927,10.4896 13.0469,10 C13.401,9.5 13.5781,8.82813 13.5781,7.98438 C13.5781,7.16146 13.401,6.50521 13.0469,6.01563 M11.5938,4.84375 C12.3542,4.84375 12.9583,5.13021 13.4063,5.70313 C13.8542,6.27604 14.0781,7.03646 14.0781,7.98438 C14.0781,8.97396 13.8542,9.75521 13.4063,10.3281 C12.9583,10.901 12.3542,11.1875 11.5938,11.1875 C10.8125,11.1875 10.1979,10.901 9.75,10.3281 C9.3125,9.75521 9.09375,8.97396 9.09375,7.98438 C9.09375,7.02604 9.31771,6.26302 9.76563,5.69531 C10.2135,5.1276 10.8229,4.84375 11.5938,4.84375 M19.5938,5.15625 L19.5938,5.70313 C19.2396,5.50521 19.0208,5.39583 18.9375,5.375 C18.6875,5.32292 18.375,5.29167 18,5.28125 C17.4375,5.28125 16.9948,5.39063 16.6719,5.60938 C16.4219,5.79688 16.2969,6.11458 16.2969,6.5625 C16.2969,6.875 16.4167,7.11458 16.6563,7.28125 C16.8958,7.46875 17.2448,7.61458 17.7031,7.71875 L18.0469,7.78125 C18.6198,7.90625 19.0521,8.08333 19.3438,8.3125 C19.6875,8.58333 19.8646,8.92708 19.875,9.34375 C19.875,9.90625 19.7083,10.349 19.375,10.6719 C19.0208,10.9948 18.4427,11.1563 17.6406,11.1563 C17.2031,11.1563 16.8698,11.125 16.6406,11.0625 C16.3594,10.9896 16.0677,10.8958 15.7656,10.7813 L15.7656,10.1563 C16.2031,10.4063 16.4844,10.5521 16.6094,10.5938 C16.9635,10.6875 17.3177,10.7344 17.6719,10.7344 C18.2448,10.7344 18.6719,10.6146 18.9531,10.375 C19.2344,10.125 19.375,9.80729 19.375,9.42188 C19.375,9.08854 19.2813,8.84896 19.0938,8.70313 C18.8229,8.48438 18.3958,8.30729 17.8125,8.17188 L17.4688,8.09375 C16.9583,7.96875 16.5729,7.80208 16.3125,7.59375 C15.9792,7.32292 15.8125,6.99479 15.8125,6.60938 C15.8125,5.98438 16.013,5.53385 16.4141,5.25781 C16.8151,4.98177 17.3073,4.84375 17.8906,4.84375 C18.3906,4.84375 18.7344,4.86979 18.9219,4.92188 C19.151,4.98438 19.375,5.0625 19.5938,5.15625 M25.3125,5.15625 L25.3125,5.70313 C24.9583,5.50521 24.7396,5.39583 24.6563,5.375 C24.4063,5.32292 24.0938,5.29167 23.7188,5.28125 C23.1563,5.28125 22.7135,5.39063 22.3906,5.60938 C22.1406,5.79688 22.0156,6.11458 22.0156,6.5625 C22.0156,6.875 22.1354,7.11458 22.375,7.28125 C22.6146,7.46875 22.9635,7.61458 23.4219,7.71875 L23.7656,7.78125 C24.3385,7.90625 24.7708,8.08333 25.0625,8.3125 C25.4063,8.58333 25.5833,8.92708 25.5938,9.34375 C25.5938,9.90625 25.4271,10.349 25.0938,10.6719 C24.7396,10.9948 24.1615,11.1563 23.3594,11.1563 C22.9219,11.1563 22.5885,11.125 22.3594,11.0625 C22.0781,10.9896 21.7865,10.8958 21.4844,10.7813 L21.4844,10.1563 C21.9219,10.4063 22.2031,10.5521 22.3281,10.5938 C22.6823,10.6875 23.0365,10.7344 23.3906,10.7344 C23.9635,10.7344 24.3906,10.6146 24.6719,10.375 C24.9531,10.125 25.0938,9.80729 25.0938,9.42188 C25.0938,9.08854 25,8.84896 24.8125,8.70313 C24.5417,8.48438 24.1146,8.30729 23.5313,8.17188 L23.1875,8.09375 C22.6771,7.96875 22.2917,7.80208 22.0313,7.59375 C21.6979,7.32292 21.5313,6.99479 21.5313,6.60938 C21.5313,5.98438 21.7318,5.53385 22.1328,5.25781 C22.5339,4.98177 23.026,4.84375 23.6094,4.84375 C24.1094,4.84375 24.4531,4.86979 24.6406,4.92188 C24.8698,4.98438 25.0938,5.0625 25.3125,5.15625 M32.3125,7.75 L32.3125,8.0625 L27.75,8.0625 C27.75,9.02083 27.9375,9.69792 28.3125,10.0938 C28.7292,10.5208 29.3438,10.7344 30.1563,10.7344 C30.375,10.7344 30.6615,10.6875 31.0156,10.5938 C31.3698,10.5 31.724,10.3594 32.0781,10.1719 L32.0781,10.6875 C31.724,10.8438 31.362,10.9609 30.9922,11.0391 C30.6224,11.1172 30.3281,11.1563 30.1094,11.1563 C29.1823,11.1563 28.4844,10.9063 28.0156,10.4063 C27.5052,9.875 27.25,9.09375 27.25,8.0625 C27.25,6.98958 27.4792,6.1875 27.9375,5.65625 C28.4167,5.11458 29.0833,4.84375 29.9375,4.84375 C30.7188,4.84375 31.3125,5.10417 31.7188,5.625 C32.1146,6.16667 32.3125,6.875 32.3125,7.75 M31.8125,7.64063 C31.8125,6.79688 31.6198,6.18229 31.2344,5.79688 C30.9219,5.45313 30.4896,5.28125 29.9375,5.28125 C29.3438,5.28125 28.8438,5.45833 28.4375,5.8125 C28.0625,6.14583 27.8385,6.75521 27.7656,7.64063 L31.8125,7.64063 M37.6563,5.40625 C37.5729,5.36458 37.4635,5.33333 37.3281,5.3125 C37.2031,5.29167 37.0521,5.28125 36.875,5.28125 C36.2604,5.28125 35.7552,5.50521 35.3594,5.95313 C35.0365,6.31771 34.875,6.94271 34.875,7.82813 L34.875,11 L34.3906,11 L34.3906,4.98438 L34.875,4.98438 L34.875,6.10938 C35.0417,5.78646 35.2708,5.51563 35.5625,5.29688 C35.9583,4.99479 36.4271,4.84375 36.9688,4.84375 C37.1146,4.84375 37.2396,4.84896 37.3438,4.85938 C37.4479,4.85938 37.5521,4.86979 37.6563,4.89063 L37.6563,5.40625 M38.3594,4.98438 L38.875,4.98438 L40.9063,10.4531 L42.9531,4.98438 L43.4688,4.98438 L41.2344,11 L40.5938,11 L38.3594,4.98438 M45.3906,4.98438 L45.8906,4.98438 L45.8906,11 L45.3906,11 L45.3906,4.98438 M45.3906,2.64063 L45.8906,2.64063 L45.8906,3.3125 L45.3906,3.3125 L45.3906,2.64063 M52.5625,5.28125 L52.5625,5.79688 C52.2708,5.61979 52.026,5.5 51.8281,5.4375 C51.4948,5.33333 51.1771,5.28125 50.875,5.28125 C50.0104,5.28125 49.3906,5.5026 49.0156,5.94531 C48.6406,6.38802 48.4531,7.07292 48.4531,8 C48.4531,8.9375 48.6406,9.6276 49.0156,10.0703 C49.3906,10.513 50.0104,10.7344 50.875,10.7344 C51.1667,10.7344 51.4479,10.6927 51.7188,10.6094 C52.0104,10.5365 52.2917,10.4219 52.5625,10.2656 L52.5625,10.7656 C52.2917,10.901 52.0104,11 51.7188,11.0625 C51.4167,11.125 51.1198,11.1563 50.8281,11.1563 C49.9531,11.1563 49.2552,10.9167 48.7344,10.4375 C48.2135,9.95833 47.9531,9.14323 47.9531,7.99219 C47.9531,6.84115 48.2135,6.02604 48.7344,5.54688 C49.2552,5.07813 49.9531,4.84375 50.8281,4.84375 C51.1198,4.84375 51.4271,4.88542 51.75,4.96875 C52.0729,5.04167 52.3438,5.14583 52.5625,5.28125 M59.1875,7.75 L59.1875,8.0625 L54.625,8.0625 C54.625,9.02083 54.8125,9.69792 55.1875,10.0938 C55.6042,10.5208 56.2188,10.7344 57.0313,10.7344 C57.25,10.7344 57.5365,10.6875 57.8906,10.5938 C58.2448,10.5 58.599,10.3594 58.9531,10.1719 L58.9531,10.6875 C58.599,10.8438 58.237,10.9609 57.8672,11.0391 C57.4974,11.1172 57.2031,11.1563 56.9844,11.1563 C56.0573,11.1563 55.3594,10.9063 54.8906,10.4063 C54.3802,9.875 54.125,9.09375 54.125,8.0625 C54.125,6.98958 54.3542,6.1875 54.8125,5.65625 C55.2917,5.11458 55.9583,4.84375 56.8125,4.84375 C57.5938,4.84375 58.1875,5.10417 58.5938,5.625 C58.9896,6.16667 59.1875,6.875 59.1875,7.75 M58.6875,7.64063 C58.6875,6.79688 58.4948,6.18229 58.1094,5.79688 C57.7969,5.45313 57.3646,5.28125 56.8125,5.28125 C56.2188,5.28125 55.7188,5.45833 55.3125,5.8125 C54.9375,6.14583 54.7135,6.75521 54.6406,7.64063 L58.6875,7.64063 M65.625,13.1719 L65.625,13.5938 L59.9063,13.5938 L59.9063,13.1719 L65.625,13.1719 M67.1563,10.5625 L68.9219,10.5625 L68.9219,3.46875 L66.7188,4.35938 L66.7188,3.85938 L68.9063,2.98438 L69.4531,2.98438 L69.4531,10.5625 L71.2344,10.5625 L71.2344,11 L67.1563,11 L67.1563,10.5625 M77.4844,6.92969 C77.151,6.53906 76.7005,6.34375 76.1328,6.34375 C75.5651,6.34375 75.1146,6.53906 74.7813,6.92969 C74.4479,7.32031 74.2813,7.85417 74.2813,8.53125 C74.2813,9.20833 74.4479,9.74219 74.7813,10.1328 C75.1146,10.5234 75.5651,10.7188 76.1328,10.7188 C76.7005,10.7188 77.151,10.5234 77.4844,10.1328 C77.8177,9.74219 77.9844,9.20833 77.9844,8.53125 C77.9844,7.85417 77.8177,7.32031 77.4844,6.92969 M78.1406,3.15625 L78.1406,3.73438 C77.8906,3.57813 77.6354,3.46354 77.375,3.39063 C77.125,3.30729 76.875,3.26563 76.625,3.26563 C75.5625,3.26563 74.8177,3.79167 74.3906,4.84375 C74.1927,5.3125 74.1042,6.11979 74.125,7.26563 C74.3021,6.86979 74.5313,6.5625 74.8125,6.34375 C75.1771,6.05208 75.6406,5.90625 76.2031,5.90625 C76.8698,5.90625 77.4271,6.14063 77.875,6.60938 C78.3229,7.08854 78.5469,7.69271 78.5469,8.42188 C78.5469,9.24479 78.3281,9.90625 77.8906,10.4063 C77.4531,10.9063 76.8802,11.1563 76.1719,11.1563 C75.3281,11.1563 74.6823,10.8021 74.2344,10.0938 C73.7865,9.375 73.5625,8.34375 73.5625,7 C73.5625,5.5625 73.8385,4.50521 74.3906,3.82813 C74.9323,3.16146 75.6667,2.82813 76.5938,2.82813 C76.8438,2.82813 77.0938,2.85938 77.3438,2.92188 C77.5938,2.97396 77.8594,3.05208 78.1406,3.15625 M80.8125,10.5625 L85.375,10.5625 L85.375,11 L80.25,11 L80.25,10.4375 L82.25,8.35938 C82.7396,7.85938 83.1875,7.39583 83.5938,6.96875 C83.9583,6.57292 84.2031,6.26563 84.3281,6.04688 C84.4531,5.82813 84.5156,5.53646 84.5156,5.17188 C84.5156,4.55729 84.3281,4.0625 83.9531,3.6875 C83.6823,3.41667 83.2396,3.28125 82.625,3.28125 C82.2604,3.28125 81.849,3.38542 81.3906,3.59375 C81.1823,3.6875 80.8333,3.89063 80.3438,4.20313 L80.3438,3.64063 C80.5521,3.49479 80.8542,3.32813 81.25,3.14063 C81.7083,2.94271 82.1615,2.83854 82.6094,2.82813 C83.2969,2.82813 83.875,3.01042 84.3438,3.375 C84.8021,3.72917 85.0313,4.3125 85.0313,5.125 C85.0313,5.45833 84.9688,5.77083 84.8438,6.0625 C84.6979,6.40625 84.474,6.75521 84.1719,7.10938 C84.0781,7.21354 83.7917,7.51042 83.3125,8 L80.8125,10.5625 M91.4531,6.92969 C91.1198,6.53906 90.6693,6.34375 90.1016,6.34375 C89.5339,6.34375 89.0833,6.53906 88.75,6.92969 C88.4167,7.32031 88.25,7.85417 88.25,8.53125 C88.25,9.20833 88.4167,9.74219 88.75,10.1328 C89.0833,10.5234 89.5339,10.7188 90.1016,10.7188 C90.6693,10.7188 91.1198,10.5234 91.4531,10.1328 C91.7865,9.74219 91.9531,9.20833 91.9531,8.53125 C91.9531,7.85417 91.7865,7.32031 91.4531,6.92969 M92.1094,3.15625 L92.1094,3.73438 C91.8594,3.57813 91.6042,3.46354 91.3438,3.39063 C91.0938,3.30729 90.8438,3.26563 90.5938,3.26563 C89.5313,3.26563 88.7865,3.79167 88.3594,4.84375 C88.1615,5.3125 88.0729,6.11979 88.0938,7.26563 C88.2708,6.86979 88.5,6.5625 88.7813,6.34375 C89.1458,6.05208 89.6094,5.90625 90.1719,5.90625 C90.8385,5.90625 91.3958,6.14063 91.8438,6.60938 C92.2917,7.08854 92.5156,7.69271 92.5156,8.42188 C92.5156,9.24479 92.2969,9.90625 91.8594,10.4063 C91.4219,10.9063 90.849,11.1563 90.1406,11.1563 C89.2969,11.1563 88.651,10.8021 88.2031,10.0938 C87.7552,9.375 87.5313,8.34375 87.5313,7 C87.5313,5.5625 87.8073,4.50521 88.3594,3.82813 C88.901,3.16146 89.6354,2.82813 90.5625,2.82813 C90.8125,2.82813 91.0625,2.85938 91.3125,2.92188 C91.5625,2.97396 91.8281,3.05208 92.1094,3.15625 M97.9219,6.67188 C98.349,6.77604 98.6875,7.01042 98.9375,7.375 C99.1771,7.71875 99.2969,8.15104 99.2969,8.67188 C99.2969,9.46354 99.0703,10.0755 98.6172,10.5078 C98.1641,10.9401 97.4375,11.1563 96.4375,11.1563 C96.0938,11.1563 95.7448,11.1042 95.3906,11 C95.0365,10.8958 94.6719,10.7292 94.2969,10.5 L94.2969,9.92188 C94.599,10.1823 94.9271,10.3802 95.2813,10.5156 C95.6354,10.651 96,10.7188 96.375,10.7188 C97.1458,10.7188 97.7344,10.5417 98.1406,10.1875 C98.5469,9.84375 98.75,9.33854 98.75,8.67188 C98.75,8.13021 98.5625,7.70313 98.1875,7.39063 C97.8125,7.08854 97.2865,6.9375 96.6094,6.9375 L95.6719,6.9375 L95.6719,6.48438 L96.6563,6.48438 C97.2708,6.48438 97.7448,6.35938 98.0781,6.10938 C98.401,5.85938 98.5625,5.5 98.5625,5.03125 C98.5625,4.46875 98.3958,4.03646 98.0625,3.73438 C97.7188,3.43229 97.2344,3.28125 96.6094,3.28125 C96.3177,3.28125 96,3.33333 95.6563,3.4375 C95.3125,3.54167 94.9375,3.70313 94.5313,3.92188 L94.5313,3.375 C94.9479,3.19792 95.3333,3.06771 95.6875,2.98438 C96.0521,2.89063 96.3906,2.83854 96.7031,2.82813 C97.526,2.82813 98.1354,3.01563 98.5313,3.39063 C98.9167,3.76563 99.1094,4.27604 99.1094,4.92188 C99.1094,5.33854 99.0052,5.70833 98.7969,6.03125 C98.599,6.34375 98.3073,6.55729 97.9219,6.67188 M106.047,13.1719 L106.047,13.5938 L100.328,13.5938 L100.328,13.1719 L106.047,13.1719 M107.578,10.5625 L109.344,10.5625 L109.344,3.46875 L107.141,4.35938 L107.141,3.85938 L109.328,2.98438 L109.875,2.98438 L109.875,10.5625 L111.656,10.5625 L111.656,11 L107.578,11 L107.578,10.5625 M114.328,2.98438 L118.125,2.98438 L118.125,3.42188 L114.859,3.42188 L114.859,6.10938 C115.026,6.04688 115.188,6 115.344,5.96875 C115.5,5.9375 115.729,5.92188 116.031,5.92188 C116.854,5.92188 117.505,6.15104 117.984,6.60938 C118.464,7.05729 118.703,7.66146 118.703,8.42188 C118.703,9.28646 118.453,9.95833 117.953,10.4375 C117.464,10.9167 116.771,11.1563 115.875,11.1563 C115.583,11.1563 115.281,11.1302 114.969,11.0781 C114.656,11.026 114.333,10.9531 114,10.8594 L114,10.3125 C114.281,10.4375 114.573,10.5365 114.875,10.6094 C115.177,10.6719 115.495,10.7031 115.828,10.7031 C116.536,10.7031 117.104,10.5 117.531,10.0938 C117.958,9.6875 118.172,9.13021 118.172,8.42188 C118.172,7.78646 117.964,7.28646 117.547,6.92188 C117.13,6.54688 116.568,6.35938 115.859,6.35938 C115.714,6.35938 115.495,6.40104 115.203,6.48438 C114.922,6.55729 114.63,6.67708 114.328,6.84375 L114.328,2.98438 M124.891,6.92969 C124.557,6.53906 124.107,6.34375 123.539,6.34375 C122.971,6.34375 122.521,6.53906 122.188,6.92969 C121.854,7.32031 121.688,7.85417 121.688,8.53125 C121.688,9.20833 121.854,9.74219 122.188,10.1328 C122.521,10.5234 122.971,10.7188 123.539,10.7188 C124.107,10.7188 124.557,10.5234 124.891,10.1328 C125.224,9.74219 125.391,9.20833 125.391,8.53125 C125.391,7.85417 125.224,7.32031 124.891,6.92969 M125.547,3.15625 L125.547,3.73438 C125.297,3.57813 125.042,3.46354 124.781,3.39063 C124.531,3.30729 124.281,3.26563 124.031,3.26563 C122.969,3.26563 122.224,3.79167 121.797,4.84375 C121.599,5.3125 121.51,6.11979 121.531,7.26563 C121.708,6.86979 121.938,6.5625 122.219,6.34375 C122.583,6.05208 123.047,5.90625 123.609,5.90625 C124.276,5.90625 124.833,6.14063 125.281,6.60938 C125.729,7.08854 125.953,7.69271 125.953,8.42188 C125.953,9.24479 125.734,9.90625 125.297,10.4063 C124.859,10.9063 124.286,11.1563 123.578,11.1563 C122.734,11.1563 122.089,10.8021 121.641,10.0938 C121.193,9.375 120.969,8.34375 120.969,7 C120.969,5.5625 121.245,4.50521 121.797,3.82813 C122.339,3.16146 123.073,2.82813 124,2.82813 C124.25,2.82813 124.5,2.85938 124.75,2.92188 C125,2.97396 125.266,3.05208 125.547,3.15625 M130.359,3.28125 C129.703,3.28125 129.214,3.59896 128.891,4.23438 C128.578,4.86979 128.422,5.78906 128.422,6.99219 C128.422,8.19531 128.578,9.11979 128.891,9.76563 C129.214,10.401 129.703,10.7188 130.359,10.7188 C131.036,10.7188 131.531,10.401 131.844,9.76563 C132.167,9.11979 132.328,8.19531 132.328,6.99219 C132.328,5.78906 132.167,4.86979 131.844,4.23438 C131.531,3.59896 131.036,3.28125 130.359,3.28125 M130.359,2.82813 C131.13,2.82813 131.74,3.14583 132.188,3.78125 C132.646,4.41667 132.875,5.48958 132.875,7 C132.875,8.51042 132.646,9.58333 132.188,10.2188 C131.74,10.8438 131.13,11.1563 130.359,11.1563 C129.609,11.1563 129.005,10.8438 128.547,10.2188 C128.099,9.58333 127.875,8.51042 127.875,7 C127.875,5.48958 128.099,4.41667 128.547,3.78125 C129.005,3.14583 129.609,2.82813 130.359,2.82813 M135.516,10.5625 L137.281,10.5625 L137.281,3.46875 L135.078,4.35938 L135.078,3.85938 L137.266,2.98438 L137.813,2.98438 L137.813,10.5625 L139.594,10.5625 L139.594,11 L135.516,11 L135.516,10.5625 M142.266,2.98438 L146.063,2.98438 L146.063,3.42188 L142.797,3.42188 L142.797,6.10938 C142.964,6.04688 143.125,6 143.281,5.96875 C143.438,5.9375 143.667,5.92188 143.969,5.92188 C144.792,5.92188 145.443,6.15104 145.922,6.60938 C146.401,7.05729 146.641,7.66146 146.641,8.42188 C146.641,9.28646 146.391,9.95833 145.891,10.4375 C145.401,10.9167 144.708,11.1563 143.813,11.1563 C143.521,11.1563 143.219,11.1302 142.906,11.0781 C142.594,11.026 142.271,10.9531 141.938,10.8594 L141.938,10.3125 C142.219,10.4375 142.51,10.5365 142.813,10.6094 C143.115,10.6719 143.432,10.7031 143.766,10.7031 C144.474,10.7031 145.042,10.5 145.469,10.0938 C145.896,9.6875 146.109,9.13021 146.109,8.42188 C146.109,7.78646 145.901,7.28646 145.484,6.92188 C145.068,6.54688 144.505,6.35938 143.797,6.35938 C143.651,6.35938 143.432,6.40104 143.141,6.48438 C142.859,6.55729 142.568,6.67708 142.266,6.84375 L142.266,2.98438 M149.328,10.8281 L149.328,10.2656 C149.578,10.4115 149.828,10.526 150.078,10.6094 C150.328,10.6823 150.578,10.7188 150.828,10.7188 C151.891,10.7188 152.635,10.1979 153.063,9.15625 C153.26,8.67708 153.349,7.86979 153.328,6.73438 C153.151,7.13021 152.922,7.4375 152.641,7.65625 C152.276,7.94792 151.818,8.09375 151.266,8.09375 C150.589,8.09375 150.026,7.85417 149.578,7.375 C149.13,6.90625 148.906,6.30208 148.906,5.5625 C148.906,4.73958 149.125,4.07813 149.563,3.57813 C150.01,3.07813 150.583,2.82813 151.281,2.82813 C152.125,2.82813 152.771,3.1875 153.219,3.90625 C153.667,4.61458 153.891,5.64583 153.891,7 C153.891,8.4375 153.615,9.48958 153.063,10.1563 C152.521,10.8229 151.786,11.1563 150.859,11.1563 C150.609,11.1563 150.359,11.1302 150.109,11.0781 C149.859,11.026 149.599,10.9427 149.328,10.8281 M149.969,7.05469 C150.302,7.44531 150.753,7.64063 151.32,7.64063 C151.888,7.64063 152.339,7.44531 152.672,7.05469 C153.005,6.66406 153.172,6.13021 153.172,5.45313 C153.172,4.77604 153.005,4.24219 152.672,3.85156 C152.339,3.46094 151.888,3.26563 151.32,3.26563 C150.753,3.26563 150.302,3.46094 149.969,3.85156 C149.635,4.24219 149.469,4.77604 149.469,5.45313 C149.469,6.13021 149.635,6.66406 149.969,7.05469 M159.297,6.67188 C159.724,6.77604 160.063,7.01042 160.313,7.375 C160.552,7.71875 160.672,8.15104 160.672,8.67188 C160.672,9.46354 160.445,10.0755 159.992,10.5078 C159.539,10.9401 158.813,11.1563 157.813,11.1563 C157.469,11.1563 157.12,11.1042 156.766,11 C156.411,10.8958 156.047,10.7292 155.672,10.5 L155.672,9.92188 C155.974,10.1823 156.302,10.3802 156.656,10.5156 C157.01,10.651 157.375,10.7188 157.75,10.7188 C158.521,10.7188 159.109,10.5417 159.516,10.1875 C159.922,9.84375 160.125,9.33854 160.125,8.67188 C160.125,8.13021 159.938,7.70313 159.563,7.39063 C159.188,7.08854 158.661,6.9375 157.984,6.9375 L157.047,6.9375 L157.047,6.48438 L158.031,6.48438 C158.646,6.48438 159.12,6.35938 159.453,6.10938 C159.776,5.85938 159.938,5.5 159.938,5.03125 C159.938,4.46875 159.771,4.03646 159.438,3.73438 C159.094,3.43229 158.609,3.28125 157.984,3.28125 C157.693,3.28125 157.375,3.33333 157.031,3.4375 C156.688,3.54167 156.313,3.70313 155.906,3.92188 L155.906,3.375 C156.323,3.19792 156.708,3.06771 157.063,2.98438 C157.427,2.89063 157.766,2.83854 158.078,2.82813 C158.901,2.82813 159.51,3.01563 159.906,3.39063 C160.292,3.76563 160.484,4.27604 160.484,4.92188 C160.484,5.33854 160.38,5.70833 160.172,6.03125 C159.974,6.34375 159.682,6.55729 159.297,6.67188 M166.281,6.67188 C166.708,6.77604 167.047,7.01042 167.297,7.375 C167.536,7.71875 167.656,8.15104 167.656,8.67188 C167.656,9.46354 167.43,10.0755 166.977,10.5078 C166.523,10.9401 165.797,11.1563 164.797,11.1563 C164.453,11.1563 164.104,11.1042 163.75,11 C163.396,10.8958 163.031,10.7292 162.656,10.5 L162.656,9.92188 C162.958,10.1823 163.286,10.3802 163.641,10.5156 C163.995,10.651 164.359,10.7188 164.734,10.7188 C165.505,10.7188 166.094,10.5417 166.5,10.1875 C166.906,9.84375 167.109,9.33854 167.109,8.67188 C167.109,8.13021 166.922,7.70313 166.547,7.39063 C166.172,7.08854 165.646,6.9375 164.969,6.9375 L164.031,6.9375 L164.031,6.48438 L165.016,6.48438 C165.63,6.48438 166.104,6.35938 166.438,6.10938 C166.76,5.85938 166.922,5.5 166.922,5.03125 C166.922,4.46875 166.755,4.03646 166.422,3.73438 C166.078,3.43229 165.594,3.28125 164.969,3.28125 C164.677,3.28125 164.359,3.33333 164.016,3.4375 C163.672,3.54167 163.297,3.70313 162.891,3.92188 L162.891,3.375 C163.307,3.19792 163.693,3.06771 164.047,2.98438 C164.411,2.89063 164.75,2.83854 165.063,2.82813 C165.885,2.82813 166.495,3.01563 166.891,3.39063 C167.276,3.76563 167.469,4.27604 167.469,4.92188 C167.469,5.33854 167.365,5.70833 167.156,6.03125 C166.958,6.34375 166.667,6.55729 166.281,6.67188 M170.125,10.5625 L174.688,10.5625 L174.688,11 L169.563,11 L169.563,10.4375 L171.563,8.35938 C172.052,7.85938 172.5,7.39583 172.906,6.96875 C173.271,6.57292 173.516,6.26563 173.641,6.04688 C173.766,5.82813 173.828,5.53646 173.828,5.17188 C173.828,4.55729 173.641,4.0625 173.266,3.6875 C172.995,3.41667 172.552,3.28125 171.938,3.28125 C171.573,3.28125 171.161,3.38542 170.703,3.59375 C170.495,3.6875 170.146,3.89063 169.656,4.20313 L169.656,3.64063 C169.865,3.49479 170.167,3.32813 170.563,3.14063 C171.021,2.94271 171.474,2.83854 171.922,2.82813 C172.609,2.82813 173.188,3.01042 173.656,3.375 C174.115,3.72917 174.344,4.3125 174.344,5.125 C174.344,5.45833 174.281,5.77083 174.156,6.0625 C174.01,6.40625 173.786,6.75521 173.484,7.10938 C173.391,7.21354 173.104,7.51042 172.625,8 L170.125,10.5625 M176.688,2.98438 L181.563,2.98438 L181.563,3.4375 L178.656,11 L178.078,11 L181,3.42188 L176.688,3.42188 L176.688,2.98438 M183.672,2.98438 L188.547,2.98438 L188.547,3.4375 L185.641,11 L185.063,11 L187.984,3.42188 L183.672,3.42188 L183.672,2.98438 M191.078,10.5625 L195.641,10.5625 L195.641,11 L190.516,11 L190.516,10.4375 L192.516,8.35938 C193.005,7.85938 193.453,7.39583 193.859,6.96875 C194.224,6.57292 194.469,6.26563 194.594,6.04688 C194.719,5.82813 194.781,5.53646 194.781,5.17188 C194.781,4.55729 194.594,4.0625 194.219,3.6875 C193.948,3.41667 193.505,3.28125 192.891,3.28125 C192.526,3.28125 192.115,3.38542 191.656,3.59375 C191.448,3.6875 191.099,3.89063 190.609,4.20313 L190.609,3.64063 C190.818,3.49479 191.12,3.32813 191.516,3.14063 C191.974,2.94271 192.427,2.83854 192.875,2.82813 C193.563,2.82813 194.141,3.01042 194.609,3.375 C195.068,3.72917 195.297,4.3125 195.297,5.125 C195.297,5.45833 195.234,5.77083 195.109,6.0625 C194.964,6.40625 194.74,6.75521 194.438,7.10938 C194.344,7.21354 194.057,7.51042 193.578,8 L191.078,10.5625"/>
</g>

<g fill="none" stroke="#000000" stroke-opacity="1" stroke-width="1" stroke-linecap="square" stroke-linejoin="bevel" transform="matrix(1.99985,0,0,1.99985,76.2337,21.9984)"
font-family="sans" font-size="11" font-weight="100" font-style="normal" 
>
</g>

<g fill="none" stroke="#000000" stroke-opacity="1" stroke-width="1" stroke-linecap="square" stroke-linejoin="bevel" transform="matrix(1.99985,0,0,1.99985,76.2337,21.9984)"
font-family="Noto Sans" font-size="9" font-weight="400" font-style="normal" 
>
</g>

<g fill="none" stroke="#000000" stroke-opacity="1" stroke-width="1" stroke-linecap="square" stroke-linejoin="bevel" transform="matrix(1.99985,0,0,1.99985,-0.00639954,179.987)"
font-family="Noto Sans" font-size="9" font-weight="400" font-style="normal" 
>
</g>

<g fill="none" stroke="#000000" stroke-opacity="1" stroke-width="1" stroke-linecap="square" stroke-linejoin="bevel" transform="matrix(1.99985,0,0,1.99985,-0.00639954,179.987)"
font-family="Noto Sans" font-size="9" font-weight="400" font-style="normal" 
>
</g>

<g fill="none" stroke="#000000" stroke-opacity="1" stroke-width="1" stroke-linecap="square" stroke-linejoin="bevel" transform="matrix(1.99985,0,0,1.99985,-0.00639954,179.987)"
font-family="Noto Sans" font-size="9" font-weight="400" font-style="normal" 
>
</g>

<g fill="none" stroke="#000000" stroke-opacity="1" stroke-width="1" stroke-linecap="square" stroke-linejoin="round" transform="matrix(1.99985,0,0,1.99985,-0.00639954,179.987)"
font-family="Noto Sans" font-size="9" font-weight="400" font-style="normal" 
>
<path vector-effect="none" fill-rule="evenodd" d="M629.32,-18 C630.41,-18 631.51,-18 632.63,-18 "/>
</g>

<g fill="none" stroke="#000000" stroke-opacity="1" stroke-width="1" stroke-linecap="square" stroke-linejoin="bevel" transform="matrix(1.99985,0,0,1.99985,-0.00639954,179.987)"
font-family="Noto Sans" font-size="9" font-weight="400" font-style="normal" 
>
</g>

<g fill="none" stroke="#000000" stroke-opacity="1" stroke-width="1" stroke-linecap="square" stroke-linejoin="bevel" transform="matrix(1.99985,0,0,1.99985,-0.00639954,179.987)"
font-family="Noto Sans" font-size="9" font-weight="400" font-style="normal" 
>
</g>

<g fill="#000000" fill-opacity="1" stroke="#000000" stroke-opacity="1" stroke-width="1" stroke-linecap="square" stroke-linejoin="round" transform="matrix(1.99985,0,0,1.99985,-0.00639954,179.987)"
font-family="Noto Sans" font-size="9" font-weight="400" font-style="normal" 
>
<path vector-effect="none" fill-rule="evenodd" d="M632.63,-18 L632.63,-14.4055 L642.9,-18 L632.63,-21.5945 L632.63,-18"/>
</g>

<g fill="none" stroke="#000000" stroke-opacity="1" stroke-width="1" stroke-linecap="square" stroke-linejoin="bevel" transform="matrix(1.99985,0,0,1.99985,-0.00639954,179.987)"
font-family="Noto Sans" font-size="9" font-weight="400" font-style="normal" 
>
</g>

<g fill="none" stroke="#000000" stroke-opacity="1" stroke-width="1" stroke-linecap="square" stroke-linejoin="bevel" transform="matrix(1.99985,0,0,1.99985,-0.00639954,179.987)"
font-family="Noto Sans" font-size="9" font-weight="400" font-style="normal" 
>
</g>

<g fill="none" stroke="#000000" stroke-opacity="1" stroke-width="1" stroke-linecap="square" stroke-linejoin="bevel" transform="matrix(1.99985,0,0,1.99985,-0.00639954,179.987)"
font-family="Noto Sans" font-size="9" font-weight="400" font-style="normal" 
>
</g>

<g fill="none" stroke="#000000" stroke-opacity="1" stroke-width="1" stroke-linecap="square" stroke-linejoin="bevel" transform="matrix(1.99985,0,0,1.99985,-0.00639954,179.987)"
font-family="Noto Sans" font-size="9" font-weight="400" font-style="normal" 
>
</g>

<g fill="none" stroke="#000000" stroke-opacity="1" stroke-width="1" stroke-linecap="square" stroke-linejoin="round" transform="matrix(1.99985,0,0,1.99985,-0.00639954,179.987)"
font-family="Noto Sans" font-size="9" font-weight="400" font-style="normal" 
>
<path vector-effect="none" fill-rule="evenodd" d="M174.32,-18 C203.63,-18 244.53,-18 276.77,-18 "/>
</g>

<g fill="none" stroke="#000000" stroke-opacity="1" stroke-width="1" stroke-linecap="square" stroke-linejoin="bevel" transform="matrix(1.99985,0,0,1.99985,-0.00639954,179.987)"
font-family="Noto Sans" font-size="9" font-weight="400" font-style="normal" 
>
</g>

<g fill="none" stroke="#000000" stroke-opacity="1" stroke-width="1" stroke-linecap="square" stroke-linejoin="bevel" transform="matrix(1.99985,0,0,1.99985,-0.00639954,179.987)"
font-family="Noto Sans" font-size="9" font-weight="400" font-style="normal" 
>
</g>

<g fill="#000000" fill-opacity="1" stroke="#000000" stroke-opacity="1" stroke-width="1" stroke-linecap="square" stroke-linejoin="round" transform="matrix(1.99985,0,0,1.99985,-0.00639954,179.987)"
font-family="Noto Sans" font-size="9" font-weight="400" font-style="normal" 
>
<path vector-effect="none" fill-rule="evenodd" d="M276.77,-18 L276.77,-14.451 L286.91,-18 L276.77,-21.549 L276.77,-18"/>
</g>

<g fill="none" stroke="#000000" stroke-opacity="1" stroke-width="1" stroke-linecap="square" stroke-linejoin="bevel" transform="matrix(1.99985,0,0,1.99985,-0.00639954,179.987)"
font-family="Noto Sans" font-size="9" font-weight="400" font-style="normal" 
>
</g>

<g fill="none" stroke="#000000" stroke-opacity="1" stroke-width="1" stroke-linecap="square" stroke-linejoin="bevel" transform="matrix(1.99985,0,0,1.99985,-0.00639954,179.987)"
font-family="Noto Sans" font-size="9" font-weight="400" font-style="normal" 
>
</g>

<g fill="none" stroke="#000000" stroke-opacity="1" stroke-width="1" stroke-linecap="square" stroke-linejoin="bevel" transform="matrix(1.99985,0,0,1.99985,-0.00639954,179.987)"
font-family="Noto Sans" font-size="9" font-weight="400" font-style="normal" 
>
</g>

<g fill="none" stroke="#000000" stroke-opacity="1" stroke-width="1" stroke-linecap="square" stroke-linejoin="bevel" transform="matrix(1.99985,0,0,1.99985,-0.00639954,179.987)"
font-family="Noto Sans" font-size="9" font-weight="400" font-style="normal" 
>
</g>

<g fill="none" stroke="#000000" stroke-opacity="1" stroke-width="1" stroke-linecap="square" stroke-linejoin="round" transform="matrix(1.99985,0,0,1.99985,-0.00639954,179.987)"
font-family="Noto Sans" font-size="9" font-weight="400" font-style="normal" 
>
<path vector-effect="none" fill-rule="evenodd" d="M561.27,-18 C562.47,-18 563.65,-18 564.82,-18 "/>
</g>

<g fill="none" stroke="#000000" stroke-opacity="1" stroke-width="1" stroke-linecap="square" stroke-linejoin="bevel" transform="matrix(1.99985,0,0,1.99985,-0.00639954,179.987)"
font-family="Noto Sans" font-size="9" font-weight="400" font-style="normal" 
>
</g>

<g fill="none" stroke="#000000" stroke-opacity="1" stroke-width="1" stroke-linecap="square" stroke-linejoin="bevel" transform="matrix(1.99985,0,0,1.99985,-0.00639954,179.987)"
font-family="Noto Sans" font-size="9" font-weight="400" font-style="normal" 
>
</g>

<g fill="#000000" fill-opacity="1" stroke="#000000" stroke-opacity="1" stroke-width="1" stroke-linecap="square" stroke-linejoin="round" transform="matrix(1.99985,0,0,1.99985,-0.00639954,179.987)"
font-family="Noto Sans" font-size="9" font-weight="400" font-style="normal" 
>
<path vector-effect="none" fill-rule="evenodd" d="M564.82,-18 L564.82,-14.4755 L574.89,-18 L564.82,-21.5245 L564.82,-18"/>
</g>

<g fill="none" stroke="#000000" stroke-opacity="1" stroke-width="1" stroke-linecap="square" stroke-linejoin="bevel" transform="matrix(1.99985,0,0,1.99985,-0.00639954,179.987)"
font-family="Noto Sans" font-size="9" font-weight="400" font-style="normal" 
>
</g>

<g fill="none" stroke="#000000" stroke-opacity="1" stroke-width="1" stroke-linecap="square" stroke-linejoin="bevel" transform="matrix(1.99985,0,0,1.99985,-0.00639954,179.987)"
font-family="Noto Sans" font-size="9" font-weight="400" font-style="normal" 
>
</g>

<g fill="none" stroke="#000000" stroke-opacity="1" stroke-width="1" stroke-linecap="square" stroke-linejoin="bevel" transform="matrix(1.99985,0,0,1.99985,-0.00639954,179.987)"
font-family="Noto Sans" font-size="9" font-weight="400" font-style="normal" 
>
</g>

<g fill="none" stroke="#000000" stroke-opacity="1" stroke-width="1" stroke-linecap="square" stroke-linejoin="bevel" transform="matrix(1.99985,0,0,1.99985,-0.00639954,179.987)"
font-family="Noto Sans" font-size="9" font-weight="400" font-style="normal" 
>
</g>

<g fill="none" stroke="#000000" stroke-opacity="1" stroke-width="1" stroke-linecap="square" stroke-linejoin="round" transform="matrix(1.99985,0,0,1.99985,-0.00639954,179.987)"
font-family="Noto Sans" font-size="9" font-weight="400" font-style="normal" 
>
<path vector-effect="none" fill-rule="evenodd" d="M369.25,-18 C370.35,-18 371.47,-18 372.59,-18 "/>
</g>

<g fill="none" stroke="#000000" stroke-opacity="1" stroke-width="1" stroke-linecap="square" stroke-linejoin="bevel" transform="matrix(1.99985,0,0,1.99985,-0.00639954,179.987)"
font-family="Noto Sans" font-size="9" font-weight="400" font-style="normal" 
>
</g>

<g fill="none" stroke="#000000" stroke-opacity="1" stroke-width="1" stroke-linecap="square" stroke-linejoin="bevel" transform="matrix(1.99985,0,0,1.99985,-0.00639954,179.987)"
font-family="Noto Sans" font-size="9" font-weight="400" font-style="normal" 
>
</g>

<g fill="#000000" fill-opacity="1" stroke="#000000" stroke-opacity="1" stroke-width="1" stroke-linecap="square" stroke-linejoin="round" transform="matrix(1.99985,0,0,1.99985,-0.00639954,179.987)"
font-family="Noto Sans" font-size="9" font-weight="400" font-style="normal" 
>
<path vector-effect="none" fill-rule="evenodd" d="M372.59,-18 L372.59,-14.374 L382.95,-18 L372.59,-21.626 L372.59,-18"/>
</g>

<g fill="none" stroke="#000000" stroke-opacity="1" stroke-width="1" stroke-linecap="square" stroke-linejoin="bevel" transform="matrix(1.99985,0,0,1.99985,-0.00639954,179.987)"
font-family="Noto Sans" font-size="9" font-weight="400" font-style="normal" 
>
</g>

<g fill="none" stroke="#000000" stroke-opacity="1" stroke-width="1" stroke-linecap="square" stroke-linejoin="bevel" transform="matrix(1,0,0,1,0,0)"
font-family="Noto Sans" font-size="9" font-weight="400" font-style="normal" 
>
</g>
</g>
</svg>
