<?xml version="1.0" encoding="UTF-8" standalone="no"?>
<svg width="240.594mm" height="63.5mm"
 xmlns="http://www.w3.org/2000/svg" xmlns:xlink="http://www.w3.org/1999/xlink"  version="1.2" baseProfile="tiny">
<title>Qt SVG Document</title>
<desc>Generated with Qt</desc>
<defs>
</defs>
<g fill="none" stroke="black" stroke-width="1" fill-rule="evenodd" stroke-linecap="square" stroke-linejoin="bevel" >

<g fill="none" stroke="#000000" stroke-opacity="1" stroke-width="1" stroke-linecap="square" stroke-linejoin="bevel" transform="matrix(1,0,0,1,0,0)"
font-family="Noto Sans" font-size="9" font-weight="400" font-style="normal" 
>
</g>

<g fill="none" stroke="#000000" stroke-opacity="1" stroke-width="1" stroke-linecap="square" stroke-linejoin="bevel" transform="matrix(1,0,0,1,0,0)"
font-family="Noto Sans" font-size="9" font-weight="400" font-style="normal" 
>
</g>

<g fill="none" stroke="#000000" stroke-opacity="1" stroke-width="1" stroke-linecap="square" stroke-linejoin="bevel" transform="matrix(2,0,0,2,-0.0064,180)"
font-family="Noto Sans" font-size="9" font-weight="400" font-style="normal" 
>
</g>

<g fill="#ffffff" fill-opacity="1" stroke="none" transform="matrix(2,0,0,2,-0.0064,180)"
font-family="Noto Sans" font-size="9" font-weight="400" font-style="normal" 
>
<rect x="0.0032" y="-90" width="340.977" height="90"/>
</g>

<g fill="none" stroke="#000000" stroke-opacity="1" stroke-width="1" stroke-linecap="square" stroke-linejoin="bevel" transform="matrix(2,0,0,2,-0.0064,180)"
font-family="Noto Sans" font-size="9" font-weight="400" font-style="normal" 
>
</g>

<g fill="none" stroke="#000000" stroke-opacity="1" stroke-width="1" stroke-linecap="square" stroke-linejoin="bevel" transform="matrix(2,0,0,2,-0.0064,180)"
font-family="Noto Sans" font-size="9" font-weight="400" font-style="normal" 
>
</g>

<g fill="none" stroke="#000000" stroke-opacity="1" stroke-width="1" stroke-linecap="square" stroke-linejoin="bevel" transform="matrix(2,0,0,2,-0.0064,180)"
font-family="Noto Sans" font-size="9" font-weight="400" font-style="normal" 
>
</g>

<g fill="none" stroke="#000000" stroke-opacity="1" stroke-width="1" stroke-linecap="square" stroke-linejoin="bevel" transform="matrix(2,0,0,2,-0.0064,180)"
font-family="Noto Sans" font-size="9" font-weight="400" font-style="normal" 
>
</g>

<g fill="none" stroke="#000000" stroke-opacity="1" stroke-width="1" stroke-linecap="square" stroke-linejoin="round" transform="matrix(2,0,0,2,-0.0064,180)"
font-family="Noto Sans" font-size="9" font-weight="400" font-style="normal" 
>
<ellipse cx="136.49" cy="-72" rx="135.987" ry="17.5"/>
</g>

<g fill="none" stroke="#000000" stroke-opacity="1" stroke-width="1" stroke-linecap="square" stroke-linejoin="bevel" transform="matrix(2,0,0,2,-0.0064,180)"
font-family="Noto Sans" font-size="9" font-weight="400" font-style="normal" 
>
</g>

<g fill="none" stroke="#000000" stroke-opacity="1" stroke-width="1" stroke-linecap="square" stroke-linejoin="bevel" transform="matrix(2,0,0,2,76.2392,22)"
font-family="Noto Sans" font-size="9" font-weight="400" font-style="normal" 
>
</g>

<g fill="none" stroke="#000000" stroke-opacity="1" stroke-width="1" stroke-linecap="square" stroke-linejoin="bevel" transform="matrix(2,0,0,2,76.2392,22)"
font-family="sans" font-size="11" font-weight="100" font-style="normal" 
>
</g>

<g fill="#000000" fill-opacity="1" stroke="#000000" stroke-opacity="1" stroke-width="1" stroke-linecap="square" stroke-linejoin="round" transform="matrix(2,0,0,2,76.2392,22)"
font-family="sans" font-size="11" font-weight="100" font-style="normal" 
>
<path vector-effect="none" fill-rule="nonzero" d="M2.96875,2.98438 L3.53125,2.98438 L0.734375,12.0156 L0.171875,12.0156 L2.96875,2.98438 M8.21875,5.40625 C8.13542,5.36458 8.02604,5.33333 7.89063,5.3125 C7.76563,5.29167 7.61458,5.28125 7.4375,5.28125 C6.82292,5.28125 6.31771,5.50521 5.92188,5.95313 C5.59896,6.31771 5.4375,6.94271 5.4375,7.82813 L5.4375,11 L4.95313,11 L4.95313,4.98438 L5.4375,4.98438 L5.4375,6.10938 C5.60417,5.78646 5.83333,5.51563 6.125,5.29688 C6.52083,4.99479 6.98958,4.84375 7.53125,4.84375 C7.67708,4.84375 7.80208,4.84896 7.90625,4.85938 C8.01042,4.85938 8.11458,4.86979 8.21875,4.89063 L8.21875,5.40625 M13.0469,6.01563 C12.6927,5.52604 12.2083,5.28125 11.5938,5.28125 C10.9792,5.28125 10.4948,5.52604 10.1406,6.01563 C9.78646,6.49479 9.60938,7.15104 9.60938,7.98438 C9.60938,8.83854 9.78646,9.51042 10.1406,10 C10.4948,10.4896 10.9792,10.7344 11.5938,10.7344 C12.2083,10.7344 12.6927,10.4896 13.0469,10 C13.401,9.5 13.5781,8.82813 13.5781,7.98438 C13.5781,7.16146 13.401,6.50521 13.0469,6.01563 M11.5938,4.84375 C12.3542,4.84375 12.9583,5.13021 13.4063,5.70313 C13.8542,6.27604 14.0781,7.03646 14.0781,7.98438 C14.0781,8.97396 13.8542,9.75521 13.4063,10.3281 C12.9583,10.901 12.3542,11.1875 11.5938,11.1875 C10.8125,11.1875 10.1979,10.901 9.75,10.3281 C9.3125,9.75521 9.09375,8.97396 9.09375,7.98438 C9.09375,7.02604 9.31771,6.26302 9.76563,5.69531 C10.2135,5.1276 10.8229,4.84375 11.5938,4.84375 M19.5938,5.15625 L19.5938,5.70313 C19.2396,5.50521 19.0208,5.39583 18.9375,5.375 C18.6875,5.32292 18.375,5.29167 18,5.28125 C17.4375,5.28125 16.9948,5.39063 16.6719,5.60938 C16.4219,5.79688 16.2969,6.11458 16.2969,6.5625 C16.2969,6.875 16.4167,7.11458 16.6563,7.28125 C16.8958,7.46875 17.2448,7.61458 17.7031,7.71875 L18.0469,7.78125 C18.6198,7.90625 19.0521,8.08333 19.3438,8.3125 C19.6875,8.58333 19.8646,8.92708 19.875,9.34375 C19.875,9.90625 19.7083,10.349 19.375,10.6719 C19.0208,10.9948 18.4427,11.1563 17.6406,11.1563 C17.2031,11.1563 16.8698,11.125 16.6406,11.0625 C16.3594,10.9896 16.0677,10.8958 15.7656,10.7813 L15.7656,10.1563 C16.2031,10.4063 16.4844,10.5521 16.6094,10.5938 C16.9635,10.6875 17.3177,10.7344 17.6719,10.7344 C18.2448,10.7344 18.6719,10.6146 18.9531,10.375 C19.2344,10.125 19.375,9.80729 19.375,9.42188 C19.375,9.08854 19.2813,8.84896 19.0938,8.70313 C18.8229,8.48438 18.3958,8.30729 17.8125,8.17188 L17.4688,8.09375 C16.9583,7.96875 16.5729,7.80208 16.3125,7.59375 C15.9792,7.32292 15.8125,6.99479 15.8125,6.60938 C15.8125,5.98438 16.013,5.53385 16.4141,5.25781 C16.8151,4.98177 17.3073,4.84375 17.8906,4.84375 C18.3906,4.84375 18.7344,4.86979 18.9219,4.92188 C19.151,4.98438 19.375,5.0625 19.5938,5.15625 M25.3125,5.15625 L25.3125,5.70313 C24.9583,5.50521 24.7396,5.39583 24.6563,5.375 C24.4063,5.32292 24.0938,5.29167 23.7188,5.28125 C23.1563,5.28125 22.7135,5.39063 22.3906,5.60938 C22.1406,5.79688 22.0156,6.11458 22.0156,6.5625 C22.0156,6.875 22.1354,7.11458 22.375,7.28125 C22.6146,7.46875 22.9635,7.61458 23.4219,7.71875 L23.7656,7.78125 C24.3385,7.90625 24.7708,8.08333 25.0625,8.3125 C25.4063,8.58333 25.5833,8.92708 25.5938,9.34375 C25.5938,9.90625 25.4271,10.349 25.0938,10.6719 C24.7396,10.9948 24.1615,11.1563 23.3594,11.1563 C22.9219,11.1563 22.5885,11.125 22.3594,11.0625 C22.0781,10.9896 21.7865,10.8958 21.4844,10.7813 L21.4844,10.1563 C21.9219,10.4063 22.2031,10.5521 22.3281,10.5938 C22.6823,10.6875 23.0365,10.7344 23.3906,10.7344 C23.9635,10.7344 24.3906,10.6146 24.6719,10.375 C24.9531,10.125 25.0938,9.80729 25.0938,9.42188 C25.0938,9.08854 25,8.84896 24.8125,8.70313 C24.5417,8.48438 24.1146,8.30729 23.5313,8.17188 L23.1875,8.09375 C22.6771,7.96875 22.2917,7.80208 22.0313,7.59375 C21.6979,7.32292 21.5313,6.99479 21.5313,6.60938 C21.5313,5.98438 21.7318,5.53385 22.1328,5.25781 C22.5339,4.98177 23.026,4.84375 23.6094,4.84375 C24.1094,4.84375 24.4531,4.86979 24.6406,4.92188 C24.8698,4.98438 25.0938,5.0625 25.3125,5.15625 M32.3125,7.75 L32.3125,8.0625 L27.75,8.0625 C27.75,9.02083 27.9375,9.69792 28.3125,10.0938 C28.7292,10.5208 29.3438,10.7344 30.1563,10.7344 C30.375,10.7344 30.6615,10.6875 31.0156,10.5938 C31.3698,10.5 31.724,10.3594 32.0781,10.1719 L32.0781,10.6875 C31.724,10.8438 31.362,10.9609 30.9922,11.0391 C30.6224,11.1172 30.3281,11.1563 30.1094,11.1563 C29.1823,11.1563 28.4844,10.9063 28.0156,10.4063 C27.5052,9.875 27.25,9.09375 27.25,8.0625 C27.25,6.98958 27.4792,6.1875 27.9375,5.65625 C28.4167,5.11458 29.0833,4.84375 29.9375,4.84375 C30.7188,4.84375 31.3125,5.10417 31.7188,5.625 C32.1146,6.16667 32.3125,6.875 32.3125,7.75 M31.8125,7.64063 C31.8125,6.79688 31.6198,6.18229 31.2344,5.79688 C30.9219,5.45313 30.4896,5.28125 29.9375,5.28125 C29.3438,5.28125 28.8438,5.45833 28.4375,5.8125 C28.0625,6.14583 27.8385,6.75521 27.7656,7.64063 L31.8125,7.64063 M37.6563,5.40625 C37.5729,5.36458 37.4635,5.33333 37.3281,5.3125 C37.2031,5.29167 37.0521,5.28125 36.875,5.28125 C36.2604,5.28125 35.7552,5.50521 35.3594,5.95313 C35.0365,6.31771 34.875,6.94271 34.875,7.82813 L34.875,11 L34.3906,11 L34.3906,4.98438 L34.875,4.98438 L34.875,6.10938 C35.0417,5.78646 35.2708,5.51563 35.5625,5.29688 C35.9583,4.99479 36.4271,4.84375 36.9688,4.84375 C37.1146,4.84375 37.2396,4.84896 37.3438,4.85938 C37.4479,4.85938 37.5521,4.86979 37.6563,4.89063 L37.6563,5.40625 M38.3594,4.98438 L38.875,4.98438 L40.9063,10.4531 L42.9531,4.98438 L43.4688,4.98438 L41.2344,11 L40.5938,11 L38.3594,4.98438 M45.3906,4.98438 L45.8906,4.98438 L45.8906,11 L45.3906,11 L45.3906,4.98438 M45.3906,2.64063 L45.8906,2.64063 L45.8906,3.3125 L45.3906,3.3125 L45.3906,2.64063 M52.5625,5.28125 L52.5625,5.79688 C52.2708,5.61979 52.026,5.5 51.8281,5.4375 C51.4948,5.33333 51.1771,5.28125 50.875,5.28125 C50.0104,5.28125 49.3906,5.5026 49.0156,5.94531 C48.6406,6.38802 48.4531,7.07292 48.4531,8 C48.4531,8.9375 48.6406,9.6276 49.0156,10.0703 C49.3906,10.513 50.0104,10.7344 50.875,10.7344 C51.1667,10.7344 51.4479,10.6927 51.7188,10.6094 C52.0104,10.5365 52.2917,10.4219 52.5625,10.2656 L52.5625,10.7656 C52.2917,10.901 52.0104,11 51.7188,11.0625 C51.4167,11.125 51.1198,11.1563 50.8281,11.1563 C49.9531,11.1563 49.2552,10.9167 48.7344,10.4375 C48.2135,9.95833 47.9531,9.14323 47.9531,7.99219 C47.9531,6.84115 48.2135,6.02604 48.7344,5.54688 C49.2552,5.07813 49.9531,4.84375 50.8281,4.84375 C51.1198,4.84375 51.4271,4.88542 51.75,4.96875 C52.0729,5.04167 52.3438,5.14583 52.5625,5.28125 M59.1875,7.75 L59.1875,8.0625 L54.625,8.0625 C54.625,9.02083 54.8125,9.69792 55.1875,10.0938 C55.6042,10.5208 56.2188,10.7344 57.0313,10.7344 C57.25,10.7344 57.5365,10.6875 57.8906,10.5938 C58.2448,10.5 58.599,10.3594 58.9531,10.1719 L58.9531,10.6875 C58.599,10.8438 58.237,10.9609 57.8672,11.0391 C57.4974,11.1172 57.2031,11.1563 56.9844,11.1563 C56.0573,11.1563 55.3594,10.9063 54.8906,10.4063 C54.3802,9.875 54.125,9.09375 54.125,8.0625 C54.125,6.98958 54.3542,6.1875 54.8125,5.65625 C55.2917,5.11458 55.9583,4.84375 56.8125,4.84375 C57.5938,4.84375 58.1875,5.10417 58.5938,5.625 C58.9896,6.16667 59.1875,6.875 59.1875,7.75 M58.6875,7.64063 C58.6875,6.79688 58.4948,6.18229 58.1094,5.79688 C57.7969,5.45313 57.3646,5.28125 56.8125,5.28125 C56.2188,5.28125 55.7188,5.45833 55.3125,5.8125 C54.9375,6.14583 54.7135,6.75521 54.6406,7.64063 L58.6875,7.64063 M65.625,13.1719 L65.625,13.5938 L59.9063,13.5938 L59.9063,13.1719 L65.625,13.1719 M67.1563,10.5625 L68.9219,10.5625 L68.9219,3.46875 L66.7188,4.35938 L66.7188,3.85938 L68.9063,2.98438 L69.4531,2.98438 L69.4531,10.5625 L71.2344,10.5625 L71.2344,11 L67.1563,11 L67.1563,10.5625 M77.4844,6.92969 C77.151,6.53906 76.7005,6.34375 76.1328,6.34375 C75.5651,6.34375 75.1146,6.53906 74.7813,6.92969 C74.4479,7.32031 74.2813,7.85417 74.2813,8.53125 C74.2813,9.20833 74.4479,9.74219 74.7813,10.1328 C75.1146,10.5234 75.5651,10.7188 76.1328,10.7188 C76.7005,10.7188 77.151,10.5234 77.4844,10.1328 C77.8177,9.74219 77.9844,9.20833 77.9844,8.53125 C77.9844,7.85417 77.8177,7.32031 77.4844,6.92969 M78.1406,3.15625 L78.1406,3.73438 C77.8906,3.57813 77.6354,3.46354 77.375,3.39063 C77.125,3.30729 76.875,3.26563 76.625,3.26563 C75.5625,3.26563 74.8177,3.79167 74.3906,4.84375 C74.1927,5.3125 74.1042,6.11979 74.125,7.26563 C74.3021,6.86979 74.5313,6.5625 74.8125,6.34375 C75.1771,6.05208 75.6406,5.90625 76.2031,5.90625 C76.8698,5.90625 77.4271,6.14063 77.875,6.60938 C78.3229,7.08854 78.5469,7.69271 78.5469,8.42188 C78.5469,9.24479 78.3281,9.90625 77.8906,10.4063 C77.4531,10.9063 76.8802,11.1563 76.1719,11.1563 C75.3281,11.1563 74.6823,10.8021 74.2344,10.0938 C73.7865,9.375 73.5625,8.34375 73.5625,7 C73.5625,5.5625 73.8385,4.50521 74.3906,3.82813 C74.9323,3.16146 75.6667,2.82813 76.5938,2.82813 C76.8438,2.82813 77.0938,2.85938 77.3438,2.92188 C77.5938,2.97396 77.8594,3.05208 78.1406,3.15625 M84.4688,6.92969 C84.1354,6.53906 83.6849,6.34375 83.1172,6.34375 C82.5495,6.34375 82.099,6.53906 81.7656,6.92969 C81.4323,7.32031 81.2656,7.85417 81.2656,8.53125 C81.2656,9.20833 81.4323,9.74219 81.7656,10.1328 C82.099,10.5234 82.5495,10.7188 83.1172,10.7188 C83.6849,10.7188 84.1354,10.5234 84.4688,10.1328 C84.8021,9.74219 84.9688,9.20833 84.9688,8.53125 C84.9688,7.85417 84.8021,7.32031 84.4688,6.92969 M85.125,3.15625 L85.125,3.73438 C84.875,3.57813 84.6198,3.46354 84.3594,3.39063 C84.1094,3.30729 83.8594,3.26563 83.6094,3.26563 C82.5469,3.26563 81.8021,3.79167 81.375,4.84375 C81.1771,5.3125 81.0885,6.11979 81.1094,7.26563 C81.2865,6.86979 81.5156,6.5625 81.7969,6.34375 C82.1615,6.05208 82.625,5.90625 83.1875,5.90625 C83.8542,5.90625 84.4115,6.14063 84.8594,6.60938 C85.3073,7.08854 85.5313,7.69271 85.5313,8.42188 C85.5313,9.24479 85.3125,9.90625 84.875,10.4063 C84.4375,10.9063 83.8646,11.1563 83.1563,11.1563 C82.3125,11.1563 81.6667,10.8021 81.2188,10.0938 C80.7708,9.375 80.5469,8.34375 80.5469,7 C80.5469,5.5625 80.8229,4.50521 81.375,3.82813 C81.9167,3.16146 82.651,2.82813 83.5781,2.82813 C83.8281,2.82813 84.0781,2.85938 84.3281,2.92188 C84.5781,2.97396 84.8438,3.05208 85.125,3.15625 M87.875,2.98438 L91.6719,2.98438 L91.6719,3.42188 L88.4063,3.42188 L88.4063,6.10938 C88.5729,6.04688 88.7344,6 88.8906,5.96875 C89.0469,5.9375 89.276,5.92188 89.5781,5.92188 C90.401,5.92188 91.0521,6.15104 91.5313,6.60938 C92.0104,7.05729 92.25,7.66146 92.25,8.42188 C92.25,9.28646 92,9.95833 91.5,10.4375 C91.0104,10.9167 90.3177,11.1563 89.4219,11.1563 C89.1302,11.1563 88.8281,11.1302 88.5156,11.0781 C88.2031,11.026 87.8802,10.9531 87.5469,10.8594 L87.5469,10.3125 C87.8281,10.4375 88.1198,10.5365 88.4219,10.6094 C88.724,10.6719 89.0417,10.7031 89.375,10.7031 C90.0833,10.7031 90.651,10.5 91.0781,10.0938 C91.5052,9.6875 91.7188,9.13021 91.7188,8.42188 C91.7188,7.78646 91.5104,7.28646 91.0938,6.92188 C90.6771,6.54688 90.1146,6.35938 89.4063,6.35938 C89.2604,6.35938 89.0417,6.40104 88.75,6.48438 C88.4688,6.55729 88.1771,6.67708 87.875,6.84375 L87.875,2.98438 M94.9375,10.8281 L94.9375,10.2656 C95.1875,10.4115 95.4375,10.526 95.6875,10.6094 C95.9375,10.6823 96.1875,10.7188 96.4375,10.7188 C97.5,10.7188 98.2448,10.1979 98.6719,9.15625 C98.8698,8.67708 98.9583,7.86979 98.9375,6.73438 C98.7604,7.13021 98.5313,7.4375 98.25,7.65625 C97.8854,7.94792 97.4271,8.09375 96.875,8.09375 C96.1979,8.09375 95.6354,7.85417 95.1875,7.375 C94.7396,6.90625 94.5156,6.30208 94.5156,5.5625 C94.5156,4.73958 94.7344,4.07813 95.1719,3.57813 C95.6198,3.07813 96.1927,2.82813 96.8906,2.82813 C97.7344,2.82813 98.3802,3.1875 98.8281,3.90625 C99.276,4.61458 99.5,5.64583 99.5,7 C99.5,8.4375 99.224,9.48958 98.6719,10.1563 C98.1302,10.8229 97.3958,11.1563 96.4688,11.1563 C96.2188,11.1563 95.9688,11.1302 95.7188,11.0781 C95.4688,11.026 95.2083,10.9427 94.9375,10.8281 M95.5781,7.05469 C95.9115,7.44531 96.362,7.64063 96.9297,7.64063 C97.4974,7.64063 97.9479,7.44531 98.2813,7.05469 C98.6146,6.66406 98.7813,6.13021 98.7813,5.45313 C98.7813,4.77604 98.6146,4.24219 98.2813,3.85156 C97.9479,3.46094 97.4974,3.26563 96.9297,3.26563 C96.362,3.26563 95.9115,3.46094 95.5781,3.85156 C95.2448,4.24219 95.0781,4.77604 95.0781,5.45313 C95.0781,6.13021 95.2448,6.66406 95.5781,7.05469 M106.047,13.1719 L106.047,13.5938 L100.328,13.5938 L100.328,13.1719 L106.047,13.1719 M107.578,10.5625 L109.344,10.5625 L109.344,3.46875 L107.141,4.35938 L107.141,3.85938 L109.328,2.98438 L109.875,2.98438 L109.875,10.5625 L111.656,10.5625 L111.656,11 L107.578,11 L107.578,10.5625 M114.328,2.98438 L118.125,2.98438 L118.125,3.42188 L114.859,3.42188 L114.859,6.10938 C115.026,6.04688 115.188,6 115.344,5.96875 C115.5,5.9375 115.729,5.92188 116.031,5.92188 C116.854,5.92188 117.505,6.15104 117.984,6.60938 C118.464,7.05729 118.703,7.66146 118.703,8.42188 C118.703,9.28646 118.453,9.95833 117.953,10.4375 C117.464,10.9167 116.771,11.1563 115.875,11.1563 C115.583,11.1563 115.281,11.1302 114.969,11.0781 C114.656,11.026 114.333,10.9531 114,10.8594 L114,10.3125 C114.281,10.4375 114.573,10.5365 114.875,10.6094 C115.177,10.6719 115.495,10.7031 115.828,10.7031 C116.536,10.7031 117.104,10.5 117.531,10.0938 C117.958,9.6875 118.172,9.13021 118.172,8.42188 C118.172,7.78646 117.964,7.28646 117.547,6.92188 C117.13,6.54688 116.568,6.35938 115.859,6.35938 C115.714,6.35938 115.495,6.40104 115.203,6.48438 C114.922,6.55729 114.63,6.67708 114.328,6.84375 L114.328,2.98438 M124.891,6.92969 C124.557,6.53906 124.107,6.34375 123.539,6.34375 C122.971,6.34375 122.521,6.53906 122.188,6.92969 C121.854,7.32031 121.688,7.85417 121.688,8.53125 C121.688,9.20833 121.854,9.74219 122.188,10.1328 C122.521,10.5234 122.971,10.7188 123.539,10.7188 C124.107,10.7188 124.557,10.5234 124.891,10.1328 C125.224,9.74219 125.391,9.20833 125.391,8.53125 C125.391,7.85417 125.224,7.32031 124.891,6.92969 M125.547,3.15625 L125.547,3.73438 C125.297,3.57813 125.042,3.46354 124.781,3.39063 C124.531,3.30729 124.281,3.26563 124.031,3.26563 C122.969,3.26563 122.224,3.79167 121.797,4.84375 C121.599,5.3125 121.51,6.11979 121.531,7.26563 C121.708,6.86979 121.938,6.5625 122.219,6.34375 C122.583,6.05208 123.047,5.90625 123.609,5.90625 C124.276,5.90625 124.833,6.14063 125.281,6.60938 C125.729,7.08854 125.953,7.69271 125.953,8.42188 C125.953,9.24479 125.734,9.90625 125.297,10.4063 C124.859,10.9063 124.286,11.1563 123.578,11.1563 C122.734,11.1563 122.089,10.8021 121.641,10.0938 C121.193,9.375 120.969,8.34375 120.969,7 C120.969,5.5625 121.245,4.50521 121.797,3.82813 C122.339,3.16146 123.073,2.82813 124,2.82813 C124.25,2.82813 124.5,2.85938 124.75,2.92188 C125,2.97396 125.266,3.05208 125.547,3.15625 M130.359,3.28125 C129.703,3.28125 129.214,3.59896 128.891,4.23438 C128.578,4.86979 128.422,5.78906 128.422,6.99219 C128.422,8.19531 128.578,9.11979 128.891,9.76563 C129.214,10.401 129.703,10.7188 130.359,10.7188 C131.036,10.7188 131.531,10.401 131.844,9.76563 C132.167,9.11979 132.328,8.19531 132.328,6.99219 C132.328,5.78906 132.167,4.86979 131.844,4.23438 C131.531,3.59896 131.036,3.28125 130.359,3.28125 M130.359,2.82813 C131.13,2.82813 131.74,3.14583 132.188,3.78125 C132.646,4.41667 132.875,5.48958 132.875,7 C132.875,8.51042 132.646,9.58333 132.188,10.2188 C131.74,10.8438 131.13,11.1563 130.359,11.1563 C129.609,11.1563 129.005,10.8438 128.547,10.2188 C128.099,9.58333 127.875,8.51042 127.875,7 C127.875,5.48958 128.099,4.41667 128.547,3.78125 C129.005,3.14583 129.609,2.82813 130.359,2.82813 M135.516,10.5625 L137.281,10.5625 L137.281,3.46875 L135.078,4.35938 L135.078,3.85938 L137.266,2.98438 L137.813,2.98438 L137.813,10.5625 L139.594,10.5625 L139.594,11 L135.516,11 L135.516,10.5625 M142.266,2.98438 L146.063,2.98438 L146.063,3.42188 L142.797,3.42188 L142.797,6.10938 C142.964,6.04688 143.125,6 143.281,5.96875 C143.438,5.9375 143.667,5.92188 143.969,5.92188 C144.792,5.92188 145.443,6.15104 145.922,6.60938 C146.401,7.05729 146.641,7.66146 146.641,8.42188 C146.641,9.28646 146.391,9.95833 145.891,10.4375 C145.401,10.9167 144.708,11.1563 143.813,11.1563 C143.521,11.1563 143.219,11.1302 142.906,11.0781 C142.594,11.026 142.271,10.9531 141.938,10.8594 L141.938,10.3125 C142.219,10.4375 142.51,10.5365 142.813,10.6094 C143.115,10.6719 143.432,10.7031 143.766,10.7031 C144.474,10.7031 145.042,10.5 145.469,10.0938 C145.896,9.6875 146.109,9.13021 146.109,8.42188 C146.109,7.78646 145.901,7.28646 145.484,6.92188 C145.068,6.54688 144.505,6.35938 143.797,6.35938 C143.651,6.35938 143.432,6.40104 143.141,6.48438 C142.859,6.55729 142.568,6.67708 142.266,6.84375 L142.266,2.98438 M149.328,10.8281 L149.328,10.2656 C149.578,10.4115 149.828,10.526 150.078,10.6094 C150.328,10.6823 150.578,10.7188 150.828,10.7188 C151.891,10.7188 152.635,10.1979 153.063,9.15625 C153.26,8.67708 153.349,7.86979 153.328,6.73438 C153.151,7.13021 152.922,7.4375 152.641,7.65625 C152.276,7.94792 151.818,8.09375 151.266,8.09375 C150.589,8.09375 150.026,7.85417 149.578,7.375 C149.13,6.90625 148.906,6.30208 148.906,5.5625 C148.906,4.73958 149.125,4.07813 149.563,3.57813 C150.01,3.07813 150.583,2.82813 151.281,2.82813 C152.125,2.82813 152.771,3.1875 153.219,3.90625 C153.667,4.61458 153.891,5.64583 153.891,7 C153.891,8.4375 153.615,9.48958 153.063,10.1563 C152.521,10.8229 151.786,11.1563 150.859,11.1563 C150.609,11.1563 150.359,11.1302 150.109,11.0781 C149.859,11.026 149.599,10.9427 149.328,10.8281 M149.969,7.05469 C150.302,7.44531 150.753,7.64063 151.32,7.64063 C151.888,7.64063 152.339,7.44531 152.672,7.05469 C153.005,6.66406 153.172,6.13021 153.172,5.45313 C153.172,4.77604 153.005,4.24219 152.672,3.85156 C152.339,3.46094 151.888,3.26563 151.32,3.26563 C150.753,3.26563 150.302,3.46094 149.969,3.85156 C149.635,4.24219 149.469,4.77604 149.469,5.45313 C149.469,6.13021 149.635,6.66406 149.969,7.05469 M156.234,2.98438 L160.031,2.98438 L160.031,3.42188 L156.766,3.42188 L156.766,6.10938 C156.932,6.04688 157.094,6 157.25,5.96875 C157.406,5.9375 157.635,5.92188 157.938,5.92188 C158.76,5.92188 159.411,6.15104 159.891,6.60938 C160.37,7.05729 160.609,7.66146 160.609,8.42188 C160.609,9.28646 160.359,9.95833 159.859,10.4375 C159.37,10.9167 158.677,11.1563 157.781,11.1563 C157.49,11.1563 157.188,11.1302 156.875,11.0781 C156.563,11.026 156.24,10.9531 155.906,10.8594 L155.906,10.3125 C156.188,10.4375 156.479,10.5365 156.781,10.6094 C157.083,10.6719 157.401,10.7031 157.734,10.7031 C158.443,10.7031 159.01,10.5 159.438,10.0938 C159.865,9.6875 160.078,9.13021 160.078,8.42188 C160.078,7.78646 159.87,7.28646 159.453,6.92188 C159.036,6.54688 158.474,6.35938 157.766,6.35938 C157.62,6.35938 157.401,6.40104 157.109,6.48438 C156.828,6.55729 156.536,6.67708 156.234,6.84375 L156.234,2.98438 M166.281,6.67188 C166.708,6.77604 167.047,7.01042 167.297,7.375 C167.536,7.71875 167.656,8.15104 167.656,8.67188 C167.656,9.46354 167.43,10.0755 166.977,10.5078 C166.523,10.9401 165.797,11.1563 164.797,11.1563 C164.453,11.1563 164.104,11.1042 163.75,11 C163.396,10.8958 163.031,10.7292 162.656,10.5 L162.656,9.92188 C162.958,10.1823 163.286,10.3802 163.641,10.5156 C163.995,10.651 164.359,10.7188 164.734,10.7188 C165.505,10.7188 166.094,10.5417 166.5,10.1875 C166.906,9.84375 167.109,9.33854 167.109,8.67188 C167.109,8.13021 166.922,7.70313 166.547,7.39063 C166.172,7.08854 165.646,6.9375 164.969,6.9375 L164.031,6.9375 L164.031,6.48438 L165.016,6.48438 C165.63,6.48438 166.104,6.35938 166.438,6.10938 C166.76,5.85938 166.922,5.5 166.922,5.03125 C166.922,4.46875 166.755,4.03646 166.422,3.73438 C166.078,3.43229 165.594,3.28125 164.969,3.28125 C164.677,3.28125 164.359,3.33333 164.016,3.4375 C163.672,3.54167 163.297,3.70313 162.891,3.92188 L162.891,3.375 C163.307,3.19792 163.693,3.06771 164.047,2.98438 C164.411,2.89063 164.75,2.83854 165.063,2.82813 C165.885,2.82813 166.495,3.01563 166.891,3.39063 C167.276,3.76563 167.469,4.27604 167.469,4.92188 C167.469,5.33854 167.365,5.70833 167.156,6.03125 C166.958,6.34375 166.667,6.55729 166.281,6.67188 M169.703,2.98438 L174.578,2.98438 L174.578,3.4375 L171.672,11 L171.094,11 L174.016,3.42188 L169.703,3.42188 L169.703,2.98438 M180.203,3.28125 L176.875,8.4375 L180.203,8.4375 L180.203,3.28125 M179.781,2.98438 L180.75,2.98438 L180.75,8.4375 L181.906,8.4375 L181.906,8.875 L180.75,8.875 L180.75,11 L180.203,11 L180.203,8.875 L176.313,8.875 L176.313,8.3125 L179.781,2.98438 M184.172,2.98438 L187.969,2.98438 L187.969,3.42188 L184.703,3.42188 L184.703,6.10938 C184.87,6.04688 185.031,6 185.188,5.96875 C185.344,5.9375 185.573,5.92188 185.875,5.92188 C186.698,5.92188 187.349,6.15104 187.828,6.60938 C188.307,7.05729 188.547,7.66146 188.547,8.42188 C188.547,9.28646 188.297,9.95833 187.797,10.4375 C187.307,10.9167 186.615,11.1563 185.719,11.1563 C185.427,11.1563 185.125,11.1302 184.813,11.0781 C184.5,11.026 184.177,10.9531 183.844,10.8594 L183.844,10.3125 C184.125,10.4375 184.417,10.5365 184.719,10.6094 C185.021,10.6719 185.339,10.7031 185.672,10.7031 C186.38,10.7031 186.948,10.5 187.375,10.0938 C187.802,9.6875 188.016,9.13021 188.016,8.42188 C188.016,7.78646 187.807,7.28646 187.391,6.92188 C186.974,6.54688 186.411,6.35938 185.703,6.35938 C185.557,6.35938 185.339,6.40104 185.047,6.48438 C184.766,6.55729 184.474,6.67708 184.172,6.84375 L184.172,2.98438 M193.219,3.28125 C192.563,3.28125 192.073,3.59896 191.75,4.23438 C191.438,4.86979 191.281,5.78906 191.281,6.99219 C191.281,8.19531 191.438,9.11979 191.75,9.76563 C192.073,10.401 192.563,10.7188 193.219,10.7188 C193.896,10.7188 194.391,10.401 194.703,9.76563 C195.026,9.11979 195.188,8.19531 195.188,6.99219 C195.188,5.78906 195.026,4.86979 194.703,4.23438 C194.391,3.59896 193.896,3.28125 193.219,3.28125 M193.219,2.82813 C193.99,2.82813 194.599,3.14583 195.047,3.78125 C195.505,4.41667 195.734,5.48958 195.734,7 C195.734,8.51042 195.505,9.58333 195.047,10.2188 C194.599,10.8438 193.99,11.1563 193.219,11.1563 C192.469,11.1563 191.865,10.8438 191.406,10.2188 C190.958,9.58333 190.734,8.51042 190.734,7 C190.734,5.48958 190.958,4.41667 191.406,3.78125 C191.865,3.14583 192.469,2.82813 193.219,2.82813 "/>
</g>

<g fill="none" stroke="#000000" stroke-opacity="1" stroke-width="1" stroke-linecap="square" stroke-linejoin="bevel" transform="matrix(2,0,0,2,76.2392,22)"
font-family="sans" font-size="11" font-weight="100" font-style="normal" 
>
</g>

<g fill="none" stroke="#000000" stroke-opacity="1" stroke-width="1" stroke-linecap="square" stroke-linejoin="bevel" transform="matrix(2,0,0,2,76.2392,22)"
font-family="Noto Sans" font-size="9" font-weight="400" font-style="normal" 
>
</g>

<g fill="none" stroke="#000000" stroke-opacity="1" stroke-width="1" stroke-linecap="square" stroke-linejoin="bevel" transform="matrix(2,0,0,2,-0.0064,180)"
font-family="Noto Sans" font-size="9" font-weight="400" font-style="normal" 
>
</g>

<g fill="none" stroke="#000000" stroke-opacity="1" stroke-width="1" stroke-linecap="square" stroke-linejoin="bevel" transform="matrix(2,0,0,2,-0.0064,180)"
font-family="Noto Sans" font-size="9" font-weight="400" font-style="normal" 
>
</g>

<g fill="none" stroke="#000000" stroke-opacity="1" stroke-width="1" stroke-linecap="square" stroke-linejoin="bevel" transform="matrix(2,0,0,2,-0.0064,180)"
font-family="Noto Sans" font-size="9" font-weight="400" font-style="normal" 
>
</g>

<g fill="none" stroke="#000000" stroke-opacity="1" stroke-width="1" stroke-linecap="square" stroke-linejoin="round" transform="matrix(2,0,0,2,-0.0064,180)"
font-family="Noto Sans" font-size="9" font-weight="400" font-style="normal" 
>
<rect x="287.48" y="-35.5" width="53" height="35"/>
</g>

<g fill="none" stroke="#000000" stroke-opacity="1" stroke-width="1" stroke-linecap="square" stroke-linejoin="bevel" transform="matrix(2,0,0,2,-0.0064,180)"
font-family="Noto Sans" font-size="9" font-weight="400" font-style="normal" 
>
</g>

<g fill="none" stroke="#000000" stroke-opacity="1" stroke-width="1" stroke-linecap="square" stroke-linejoin="bevel" transform="matrix(2,0,0,2,603.204,130)"
font-family="Noto Sans" font-size="9" font-weight="400" font-style="normal" 
>
</g>

<g fill="none" stroke="#000000" stroke-opacity="1" stroke-width="1" stroke-linecap="square" stroke-linejoin="bevel" transform="matrix(2,0,0,2,603.204,130)"
font-family="sans" font-size="11" font-weight="100" font-style="normal" 
>
</g>

<g fill="#000000" fill-opacity="1" stroke="#000000" stroke-opacity="1" stroke-width="1" stroke-linecap="square" stroke-linejoin="round" transform="matrix(2,0,0,2,603.204,130)"
font-family="sans" font-size="11" font-weight="100" font-style="normal" 
>
<path vector-effect="none" fill-rule="nonzero" d="M2.96875,2.98438 L3.53125,2.98438 L0.734375,12.0156 L0.171875,12.0156 L2.96875,2.98438 M8.53125,6.01563 C8.17708,5.52604 7.69271,5.28125 7.07813,5.28125 C6.46354,5.28125 5.97917,5.52604 5.625,6.01563 C5.27083,6.49479 5.09375,7.15104 5.09375,7.98438 C5.09375,8.83854 5.27083,9.51042 5.625,10 C5.97917,10.4896 6.46354,10.7344 7.07813,10.7344 C7.69271,10.7344 8.17708,10.4896 8.53125,10 C8.88542,9.5 9.0625,8.82813 9.0625,7.98438 C9.0625,7.16146 8.88542,6.50521 8.53125,6.01563 M7.07813,4.84375 C7.83854,4.84375 8.44271,5.13021 8.89063,5.70313 C9.33854,6.27604 9.5625,7.03646 9.5625,7.98438 C9.5625,8.97396 9.33854,9.75521 8.89063,10.3281 C8.44271,10.901 7.83854,11.1875 7.07813,11.1875 C6.29688,11.1875 5.68229,10.901 5.23438,10.3281 C4.79688,9.75521 4.57813,8.97396 4.57813,7.98438 C4.57813,7.02604 4.80208,6.26302 5.25,5.69531 C5.69792,5.1276 6.30729,4.84375 7.07813,4.84375 M11.6563,4.98438 L12.1563,4.98438 L12.1563,11 L11.6563,11 L11.6563,4.98438 M11.6563,2.64063 L12.1563,2.64063 L12.1563,3.3125 L11.6563,3.3125 L11.6563,2.64063 M19.2656,7.375 L19.2656,11 L18.7656,11 L18.7656,7.40625 C18.7656,6.625 18.6406,6.07552 18.3906,5.75781 C18.1406,5.4401 17.7708,5.28125 17.2813,5.28125 C16.7083,5.28125 16.224,5.45313 15.8281,5.79688 C15.4115,6.14063 15.2031,6.73958 15.2031,7.59375 L15.2031,11 L14.7188,11 L14.7188,4.98438 L15.2031,4.98438 L15.2031,6.10938 C15.3802,5.74479 15.6146,5.46875 15.9063,5.28125 C16.3229,4.98958 16.7865,4.84375 17.2969,4.84375 C17.901,4.84375 18.3802,5.04688 18.7344,5.45313 C19.0885,5.84896 19.2656,6.48958 19.2656,7.375 M22.2031,3.28125 L22.2031,4.98438 L24.2344,4.98438 L24.2344,5.40625 L22.2031,5.40625 L22.2031,9.01563 C22.2031,9.47396 22.2604,9.79688 22.375,9.98438 C22.625,10.3802 22.9844,10.5781 23.4531,10.5781 L24.2344,10.5781 L24.2344,11 L23.4688,11 C22.9792,11 22.5625,10.8568 22.2188,10.5703 C21.875,10.2839 21.7031,9.76563 21.7031,9.01563 L21.7031,5.40625 L20.9844,5.40625 L20.9844,4.98438 L21.7031,4.98438 L21.7031,3.28125 L22.2031,3.28125"/>
</g>

<g fill="none" stroke="#000000" stroke-opacity="1" stroke-width="1" stroke-linecap="square" stroke-linejoin="bevel" transform="matrix(2,0,0,2,603.204,130)"
font-family="sans" font-size="11" font-weight="100" font-style="normal" 
>
</g>

<g fill="none" stroke="#000000" stroke-opacity="1" stroke-width="1" stroke-linecap="square" stroke-linejoin="bevel" transform="matrix(2,0,0,2,603.204,130)"
font-family="Noto Sans" font-size="9" font-weight="400" font-style="normal" 
>
</g>

<g fill="none" stroke="#000000" stroke-opacity="1" stroke-width="1" stroke-linecap="square" stroke-linejoin="bevel" transform="matrix(2,0,0,2,-0.0064,180)"
font-family="Noto Sans" font-size="9" font-weight="400" font-style="normal" 
>
</g>

<g fill="none" stroke="#000000" stroke-opacity="1" stroke-width="1" stroke-linecap="square" stroke-linejoin="bevel" transform="matrix(2,0,0,2,-0.0064,180)"
font-family="Noto Sans" font-size="9" font-weight="400" font-style="normal" 
>
</g>

<g fill="none" stroke="#000000" stroke-opacity="1" stroke-width="1" stroke-linecap="square" stroke-linejoin="bevel" transform="matrix(2,0,0,2,-0.0064,180)"
font-family="Noto Sans" font-size="9" font-weight="400" font-style="normal" 
>
</g>

<g fill="none" stroke="#000000" stroke-opacity="1" stroke-width="1" stroke-linecap="square" stroke-linejoin="round" transform="matrix(2,0,0,2,-0.0064,180)"
font-family="Noto Sans" font-size="9" font-weight="400" font-style="normal" 
>
<ellipse cx="136.49" cy="-18" rx="37.1956" ry="17.5"/>
</g>

<g fill="none" stroke="#000000" stroke-opacity="1" stroke-width="1" stroke-linecap="square" stroke-linejoin="bevel" transform="matrix(2,0,0,2,-0.0064,180)"
font-family="Noto Sans" font-size="9" font-weight="400" font-style="normal" 
>
</g>

<g fill="none" stroke="#000000" stroke-opacity="1" stroke-width="1" stroke-linecap="square" stroke-linejoin="bevel" transform="matrix(2,0,0,2,232.708,130)"
font-family="Noto Sans" font-size="9" font-weight="400" font-style="normal" 
>
</g>

<g fill="none" stroke="#000000" stroke-opacity="1" stroke-width="1" stroke-linecap="square" stroke-linejoin="bevel" transform="matrix(2,0,0,2,232.708,130)"
font-family="sans" font-size="11" font-weight="100" font-style="normal" 
>
</g>

<g fill="#000000" fill-opacity="1" stroke="#000000" stroke-opacity="1" stroke-width="1" stroke-linecap="square" stroke-linejoin="round" transform="matrix(2,0,0,2,232.708,130)"
font-family="sans" font-size="11" font-weight="100" font-style="normal" 
>
<path vector-effect="none" fill-rule="nonzero" d="M2.96875,2.98438 L3.53125,2.98438 L0.734375,12.0156 L0.171875,12.0156 L2.96875,2.98438 M4.9375,4.98438 L5.4375,4.98438 L5.4375,11 L4.9375,11 L4.9375,4.98438 M4.9375,2.64063 L5.4375,2.64063 L5.4375,3.3125 L4.9375,3.3125 L4.9375,2.64063 M12.5469,7.375 L12.5469,11 L12.0469,11 L12.0469,7.40625 C12.0469,6.625 11.9219,6.07552 11.6719,5.75781 C11.4219,5.4401 11.0521,5.28125 10.5625,5.28125 C9.98958,5.28125 9.50521,5.45313 9.10938,5.79688 C8.69271,6.14063 8.48438,6.73958 8.48438,7.59375 L8.48438,11 L8,11 L8,4.98438 L8.48438,4.98438 L8.48438,6.10938 C8.66146,5.74479 8.89583,5.46875 9.1875,5.28125 C9.60417,4.98958 10.0677,4.84375 10.5781,4.84375 C11.1823,4.84375 11.6615,5.04688 12.0156,5.45313 C12.3698,5.84896 12.5469,6.48958 12.5469,7.375 M15.4844,3.28125 L15.4844,4.98438 L17.5156,4.98438 L17.5156,5.40625 L15.4844,5.40625 L15.4844,9.01563 C15.4844,9.47396 15.5417,9.79688 15.6563,9.98438 C15.9063,10.3802 16.2656,10.5781 16.7344,10.5781 L17.5156,10.5781 L17.5156,11 L16.75,11 C16.2604,11 15.8438,10.8568 15.5,10.5703 C15.1563,10.2839 14.9844,9.76563 14.9844,9.01563 L14.9844,5.40625 L14.2656,5.40625 L14.2656,4.98438 L14.9844,4.98438 L14.9844,3.28125 L15.4844,3.28125 M23.6406,13.1719 L23.6406,13.5938 L17.9219,13.5938 L17.9219,13.1719 L23.6406,13.1719 M28.1875,5.15625 L28.1875,5.70313 C27.8333,5.50521 27.6146,5.39583 27.5313,5.375 C27.2813,5.32292 26.9688,5.29167 26.5938,5.28125 C26.0313,5.28125 25.5885,5.39063 25.2656,5.60938 C25.0156,5.79688 24.8906,6.11458 24.8906,6.5625 C24.8906,6.875 25.0104,7.11458 25.25,7.28125 C25.4896,7.46875 25.8385,7.61458 26.2969,7.71875 L26.6406,7.78125 C27.2135,7.90625 27.6458,8.08333 27.9375,8.3125 C28.2813,8.58333 28.4583,8.92708 28.4688,9.34375 C28.4688,9.90625 28.3021,10.349 27.9688,10.6719 C27.6146,10.9948 27.0365,11.1563 26.2344,11.1563 C25.7969,11.1563 25.4635,11.125 25.2344,11.0625 C24.9531,10.9896 24.6615,10.8958 24.3594,10.7813 L24.3594,10.1563 C24.7969,10.4063 25.0781,10.5521 25.2031,10.5938 C25.5573,10.6875 25.9115,10.7344 26.2656,10.7344 C26.8385,10.7344 27.2656,10.6146 27.5469,10.375 C27.8281,10.125 27.9688,9.80729 27.9688,9.42188 C27.9688,9.08854 27.875,8.84896 27.6875,8.70313 C27.4167,8.48438 26.9896,8.30729 26.4063,8.17188 L26.0625,8.09375 C25.5521,7.96875 25.1667,7.80208 24.9063,7.59375 C24.5729,7.32292 24.4063,6.99479 24.4063,6.60938 C24.4063,5.98438 24.6068,5.53385 25.0078,5.25781 C25.4089,4.98177 25.901,4.84375 26.4844,4.84375 C26.9844,4.84375 27.3281,4.86979 27.5156,4.92188 C27.7448,4.98438 27.9688,5.0625 28.1875,5.15625 M33.7656,5.40625 C33.6823,5.36458 33.5729,5.33333 33.4375,5.3125 C33.3125,5.29167 33.1615,5.28125 32.9844,5.28125 C32.3698,5.28125 31.8646,5.50521 31.4688,5.95313 C31.1458,6.31771 30.9844,6.94271 30.9844,7.82813 L30.9844,11 L30.5,11 L30.5,4.98438 L30.9844,4.98438 L30.9844,6.10938 C31.151,5.78646 31.3802,5.51563 31.6719,5.29688 C32.0677,4.99479 32.5365,4.84375 33.0781,4.84375 C33.224,4.84375 33.349,4.84896 33.4531,4.85938 C33.5573,4.85938 33.6615,4.86979 33.7656,4.89063 L33.7656,5.40625 M34.4688,4.98438 L34.9844,4.98438 L37.0156,10.4531 L39.0625,4.98438 L39.5781,4.98438 L37.3438,11 L36.7031,11 L34.4688,4.98438"/>
</g>

<g fill="none" stroke="#000000" stroke-opacity="1" stroke-width="1" stroke-linecap="square" stroke-linejoin="bevel" transform="matrix(2,0,0,2,232.708,130)"
font-family="sans" font-size="11" font-weight="100" font-style="normal" 
>
</g>

<g fill="none" stroke="#000000" stroke-opacity="1" stroke-width="1" stroke-linecap="square" stroke-linejoin="bevel" transform="matrix(2,0,0,2,232.708,130)"
font-family="Noto Sans" font-size="9" font-weight="400" font-style="normal" 
>
</g>

<g fill="none" stroke="#000000" stroke-opacity="1" stroke-width="1" stroke-linecap="square" stroke-linejoin="bevel" transform="matrix(2,0,0,2,-0.0064,180)"
font-family="Noto Sans" font-size="9" font-weight="400" font-style="normal" 
>
</g>

<g fill="none" stroke="#000000" stroke-opacity="1" stroke-width="1" stroke-linecap="square" stroke-linejoin="bevel" transform="matrix(2,0,0,2,-0.0064,180)"
font-family="Noto Sans" font-size="9" font-weight="400" font-style="normal" 
>
</g>

<g fill="none" stroke="#000000" stroke-opacity="1" stroke-width="1" stroke-linecap="square" stroke-linejoin="bevel" transform="matrix(2,0,0,2,-0.0064,180)"
font-family="Noto Sans" font-size="9" font-weight="400" font-style="normal" 
>
</g>

<g fill="none" stroke="#000000" stroke-opacity="1" stroke-width="1" stroke-linecap="square" stroke-linejoin="round" transform="matrix(2,0,0,2,-0.0064,180)"
font-family="Noto Sans" font-size="9" font-weight="400" font-style="normal" 
>
<path vector-effect="none" fill-rule="evenodd" d="M174.56,-18 C204.81,-18 246.88,-18 276.87,-18 "/>
</g>

<g fill="none" stroke="#000000" stroke-opacity="1" stroke-width="1" stroke-linecap="square" stroke-linejoin="bevel" transform="matrix(2,0,0,2,-0.0064,180)"
font-family="Noto Sans" font-size="9" font-weight="400" font-style="normal" 
>
</g>

<g fill="none" stroke="#000000" stroke-opacity="1" stroke-width="1" stroke-linecap="square" stroke-linejoin="bevel" transform="matrix(2,0,0,2,-0.0064,180)"
font-family="Noto Sans" font-size="9" font-weight="400" font-style="normal" 
>
</g>

<g fill="#000000" fill-opacity="1" stroke="#000000" stroke-opacity="1" stroke-width="1" stroke-linecap="square" stroke-linejoin="round" transform="matrix(2,0,0,2,-0.0064,180)"
font-family="Noto Sans" font-size="9" font-weight="400" font-style="normal" 
>
<path vector-effect="none" fill-rule="evenodd" d="M276.87,-18 L276.87,-14.4755 L286.94,-18 L276.87,-21.5245 L276.87,-18"/>
</g>

<g fill="none" stroke="#000000" stroke-opacity="1" stroke-width="1" stroke-linecap="square" stroke-linejoin="bevel" transform="matrix(2,0,0,2,-0.0064,180)"
font-family="Noto Sans" font-size="9" font-weight="400" font-style="normal" 
>
</g>

<g fill="none" stroke="#000000" stroke-opacity="1" stroke-width="1" stroke-linecap="square" stroke-linejoin="bevel" transform="matrix(1,0,0,1,0,0)"
font-family="Noto Sans" font-size="9" font-weight="400" font-style="normal" 
>
</g>
</g>
</svg>
